<?xml version="1.0" encoding="utf-8"?>
<!-- Generator: Adobe Illustrator 26.0.1, SVG Export Plug-In . SVG Version: 6.00 Build 0)  -->
<svg version="1.1" id="Layer_1" xmlns="http://www.w3.org/2000/svg" xmlns:xlink="http://www.w3.org/1999/xlink" x="0px" y="0px"
	 viewBox="0 0 1421.8 827" style="enable-background:new 0 0 1421.8 827;" xml:space="preserve">
<style type="text/css">
	.st0{fill:#D9FFFC;}
	.st1{fill:#D8D31E;}
	.st2{fill:#B05A2F;}
	.st3{fill:#7A3C12;}
	.st4{fill:#A0522D;}
	.st5{fill:#8B4513;}
	.st6{fill:#FF99FF;}
	.st7{fill:#990099;}
	.st8{fill:#B300B3;}
	.st9{fill:#FF80FF;}
	.st10{fill:#FF66FF;}
	.st11{fill:#CC00CC;}
	.st12{fill:#FF4DFF;}
	.st13{fill:#E600E6;}
	.st14{fill:none;stroke:#C49A6C;stroke-width:2;stroke-miterlimit:10;}
	.st15{fill:#00FF00;}
	.st16{fill:#999900;}
	.st17{fill:#FFFF99;}
	.st18{fill:#33FF33;}
	.st19{fill:#454545;}
	.st20{fill:#00E600;}
	.st21{fill:#00CC00;}
	.st22{fill:#4DFF4D;}
	.st23{fill:#66FF66;}
	.st24{fill:#FF0000;}
	.st25{fill:#E60000;}
	.st26{fill:#FF3333;}
	.st27{fill:#FF4D4D;}
	.st28{fill:#FF6666;}
	.st29{fill:#CC0000;}
	.st30{fill:#FF8080;}
	.st31{fill:#B30000;}
	.st32{fill:#CC6600;}
	.st33{fill:#FFAD66;}
	.st34{fill:#FFA34D;}
	.st35{fill:#E67300;}
	.st36{fill:#FF8000;}
	.st37{fill:#990000;}
	.st38{fill:#FF9999;}
	.st39{fill:#FF9933;}
	.st40{fill:#FFFF66;}
	.st41{fill:#CCCC00;}
	.st42{fill:#FFFF80;}
	.st43{fill:#B3B300;}
	.st44{fill:#FFFF00;}
	.st45{fill:#FFFF33;}
	.st46{fill:#FFFF4D;}
	.st47{fill:#E6E600;}
	.st48{fill:#000099;}
	.st49{fill:#9999FF;}
	.st50{fill:#6666FF;}
	.st51{fill:#0000CC;}
	.st52{fill:#0000FF;}
	.st53{fill:#3333FF;}
	.st54{fill:#80FFFF;}
	.st55{fill:#00B3B3;}
	.st56{fill:#66FFFF;}
	.st57{fill:#00CCCC;}
	.st58{fill:#4DFFFF;}
	.st59{fill:#00E6E6;}
	.st60{fill:#00FFFF;}
	.st61{fill:#33FFFF;}
	.st62{fill:#80FF80;}
	.st63{fill:#00B300;}
	.st64{fill:#99FF99;}
	.st65{fill:#009900;}
	.st66{fill:#994D00;}
	.st67{fill:#FFC299;}
	.st68{fill:#B35900;}
	.st69{fill:#FFB880;}
	.st70{fill:#16A085;}
	.st71{fill:#E74C3C;}
	.st72{fill:#1ABC9C;}
	.st73{fill:#D35400;}
	.st74{fill:#34495E;}
	.st75{fill:#F39C12;}
	.st76{fill:#2980B9;}
	.st77{fill:#E67E22;}
	.st78{fill:#D4F1F4;}
	.st79{fill:#88C5B9;}
	.st80{fill:#2C3E50;}
	.st81{fill:#F1C40F;}
	.st82{fill:#C1E1C1;}
	.st83{fill:#98D8C8;}
	.st84{fill:#E6E6FA;}
	.st85{fill:#FAD0C4;}
	.st86{fill:#AED9E0;}
	.st87{fill:#CCCCCC;}
	.st88{fill:#F3E5AB;}
	.st89{fill:#4D4D4D;}
	.st90{fill:#F8C8DC;}
	.st91{fill:#595959;}
	.st92{fill:#BFBFBF;}
	.st93{fill:#B39EB5;}
	.st94{fill:#47210C;}
	.st95{fill:#666666;}
	.st96{fill:#E07235;}
	.st97{fill:#B3B3B3;}
	.st98{fill:#A6A6A6;}
	.st99{fill:#D06A33;}
	.st100{fill:#737373;}
	.st101{fill:#582A0E;}
	.st102{fill:#808080;}
	.st103{fill:#693310;}
	.st104{fill:#C06231;}
	.st105{fill:#999999;}
	.st106{fill:#FF00FF;}
	.st107{fill:#FF33FF;}
	.st108{fill:#4D004D;}
	.st109{fill:#C299FF;}
	.st110{fill:#B880FF;}
	.st111{fill:#590059;}
	.st112{fill:#AD66FF;}
	.st113{fill:#660066;}
	.st114{fill:#A34DFF;}
	.st115{fill:#730073;}
	.st116{fill:#9933FF;}
	.st117{fill:#800080;}
	.st118{fill:#662D91;}
	.st119{fill:#262262;}
	.st120{fill:#8080FF;}
	.st121{fill:#0000B3;}
	.st122{fill:#0000E6;}
	.st123{fill:#4D4DFF;}
	.st124{fill:#009999;}
	.st125{fill:#99FFFF;}
	.st126{fill:#FFFFFF;stroke:#C49A6C;stroke-width:2;stroke-miterlimit:10;}
	.st127{fill:#F7D2F9;}
	.st128{font-family:'ArialMT';}
	.st129{font-size:7.2203px;}
</style>
<g>
	<path class="st0" d="M498.9,751.3c1.3-9.3,2.3-18.7,4.1-28c4.8-26.2,10-52.3,20.7-76.8c6.2-14.1,8.2-29.2,9.1-44.3
		c1.1-19,3.8-37.8,8-56.4c2.6-11.5,2-23,1.1-34.5c-1.8-22.3-0.3-44.2,7.5-65.4c3-8,5.4-16.2,9.5-23.9c5.5-10.3,15.1-15.2,24.7-20.7
		c13.7-7.8,29.5-9.5,43.5-16.3c14.9-7.2,29.8-14.3,43.9-23c11.9-7.3,17.3-17.4,16.9-31.3c-0.3-9.9-0.5-19.9-1.9-29.7
		c-0.1-1-0.3-2.1-0.9-2.8c-5.8-7.1-7.4-15.9-9.4-24.5c-0.3-1.2-0.6-2.4-0.8-3.6c-0.4-2.2-1-3.6-3.9-3.2c-3.2,0.4-4.9-2-6.3-4.5
		c-6.7-12-8.8-25.2-10.4-38.6c-0.7-5.2,1.5-7,6.6-6.6c2.6,0.2,1.5-1.5,1.3-2.4c-1.2-5.7-1.9-11.5-2.3-17.3
		c-1.4-16.9,0.9-33.3,8.7-48.5c6.1-11.8,15.6-20.8,27-27.7c18.5-11.2,38.6-14.7,59.5-9c31,8.5,52.5,30.6,56.1,65
		c1.3,12.2,0.7,24.3-1.7,36.3c-0.5,2.3-0.8,4.2,2.8,3.1c2.5-0.7,4.4,0.8,5,3.3c0.4,1.4,0.6,3,0.3,4.4c-2.8,12.4-3.7,25.4-10.3,36.8
		c-1.8,3.1-3.7,5.6-7.7,5.4c-1.7-0.1-2.4,0.8-2.7,2.4c-2.1,10.8-4.7,21.3-11.2,30.5c-1,1.4-0.8,3.8-1,5.8
		c-1.1,9.3-1.2,18.6-1.1,27.9c0.2,11.7,5.6,20.1,15.1,26.7c12.8,8.8,26.8,15.1,40.6,22.1c9.5,4.8,19.5,8,29.6,11.1
		c11.2,3.4,21.6,8.8,31.6,14.8c6.5,3.9,10.6,10.2,13.6,16.9c10.9,24.2,17.7,49.3,16.2,76.2c-0.4,6.4-0.8,12.9-1.2,19.3
		c-0.6,9.4,0,18.6,2.1,27.8c4.3,19.2,6.7,38.7,8.1,58.3c1.1,16.2,4.8,31.9,11.3,46.9c7.5,17.3,10.8,35.9,14.9,54.2
		c2.8,12.6,4.7,25.4,6.4,38.2c0.2,1.8,0.2,3.7,0.3,5.6c-21.4,0-42.8,0-64.2,0c-8.4-23.6-14.3-47.8-18.7-72.4
		c-2.1-11.3-1.9-23-5-34.2c-6.1-21.7-12.5-43.4-18.8-65.1c-0.4-1.3-0.8-2.7-1.2-4c-3.3,10.5-6.3,20.7-8.1,31.2
		c-2.8,15.9-5,31.9-7.6,47.8c-2.3,14.2-3.1,28.5,0.6,42.5c4.6,17.9,9.2,35.8,11.9,54.2c-83.3,0-166.6,0-250,0
		c2.4-15.6,5-31.1,9.7-46.2c3.8-12.3,5.4-25,4.1-37.9c-2.1-20.6-6.6-40.9-9.6-61.4c-1.5-10.1-4.5-20-6.9-30.1
		c-1.5,0.8-1.4,1.9-1.6,2.8c-3.8,14.8-8.4,29.4-12.7,44c-4.5,15.3-9.1,30.5-10.3,46.5c-1,14.8-4.6,29.1-8.4,43.4
		c-3.5,13.1-7.1,26.1-11.3,39C542.2,751.3,520.5,751.3,498.9,751.3z"/>
</g>
<path class="st1" d="M61.6,765.1L61.6,765.1L61.6,765.1C61.6,765.1,61.6,765.1,61.6,765.1z"/>
<path class="st1" d="M591.2,765.2L591.2,765.2C591.1,765.1,591.1,765.1,591.2,765.2C591.1,765.1,591.2,765.1,591.2,765.2z"/>
<path class="st2" d="M719.1,453.3v73.3H715v-71.2c1-0.5,2-1,2.9-1.5C718.4,453.7,718.7,453.4,719.1,453.3z"/>
<path class="st3" d="M723.2,451.3v75.2h-4.1v-73.3c0.4-0.2,0.8-0.4,1.2-0.6C721.2,452.3,722.2,451.8,723.2,451.3z"/>
<path class="st4" d="M735.7,445.9v80.6h-4.1v-78.9C733,447,734.4,446.5,735.7,445.9z"/>
<path class="st5" d="M739.8,444.3v82.2h-4.1v-80.6c1-0.4,2-0.8,3-1.2C739.1,444.6,739.4,444.5,739.8,444.3z"/>
<path class="st6" d="M752.4,440v86.5h-4.1v-85.2C749.7,440.9,751,440.4,752.4,440z"/>
<path class="st7" d="M756.4,438.8v87.8h-4.1V440C753.7,439.5,755.1,439.1,756.4,438.8z"/>
<rect x="719.1" y="526.5" class="st8" width="4.1" height="67"/>
<rect x="715" y="526.5" class="st9" width="4.1" height="67"/>
<rect x="731.7" y="526.5" class="st10" width="4.1" height="67"/>
<rect x="735.7" y="526.5" class="st11" width="4.1" height="67"/>
<rect x="748.3" y="526.5" class="st12" width="4.1" height="67"/>
<rect x="752.4" y="526.5" class="st13" width="4.1" height="67"/>
<g>
	<path class="st14" d="M723.2,513v-61.7c-1,0.4-1.9,0.9-2.9,1.4c-0.4,0.2-0.8,0.4-1.2,0.6s-0.7,0.4-1.1,0.6c-1,0.5-1.9,1-2.9,1.5
		v59.1v29.4v67h4.1h4.1v-67L723.2,513L723.2,513z"/>
	<path class="st14" d="M739.8,510.6v-66.2c-0.4,0.1-0.7,0.3-1.1,0.4c-1,0.4-2,0.8-3,1.2c-1.3,0.5-2.7,1.1-4.1,1.7v64.1V544v67h4.1
		h4.1v-67V510.6z"/>
	<path class="st14" d="M756.4,508.6v-69.8c-1.3,0.4-2.7,0.8-4.1,1.2c-1.3,0.4-2.7,0.9-4.1,1.3v68.2v34.4v67h4.1h4.1v-67V508.6z"/>
</g>
<path class="st15" d="M654.5,536.7c-16.4,5.7-32.6,12.9-47.8,22.4c-1.2,0.8-2.4,1.6-3.6,2.4c-1.2,0.8-2.4,1.7-3.6,2.5
	c-10.1,7.2-18.9,15.4-25.8,24.8l-3.3-2.4c6.8-9.4,15.6-17.7,25.6-25c1.2-0.8,2.3-1.7,3.5-2.5s2.4-1.6,3.6-2.4
	c14.8-9.6,31.9-17.3,49.5-23.4L654.5,536.7z"/>
<path class="st16" d="M784.3,513.2c-0.2,0-11.1,0.4-28,2.2c-1.3,0.1-2.7,0.3-4.1,0.4c-1.3,0.1-2.7,0.3-4.1,0.5
	c-2.7,0.3-5.6,0.7-8.5,1.1c-0.4,0-0.7,0.1-1.1,0.2c-1,0.1-2,0.3-3,0.4c-1.3,0.2-2.7,0.4-4.1,0.6c-2.8,0.4-5.6,0.9-8.5,1.3
	c-1,0.2-1.9,0.3-2.9,0.5c-0.4,0.1-0.8,0.1-1.2,0.2c-0.4,0.1-0.7,0.1-1.1,0.2c-1,0.2-1.9,0.4-2.9,0.5c-19.7,3.7-40.2,8.4-60.2,15.4
	l-2-3.6c20.9-7.3,42.6-12.4,62.2-15.9c1.4-0.3,2.7-0.5,4.1-0.7c1.4-0.2,2.7-0.5,4.1-0.7c2.9-0.5,5.7-0.9,8.5-1.3
	c1.4-0.2,2.7-0.4,4.1-0.6c1.4-0.2,2.7-0.4,4.1-0.6c2.9-0.4,5.8-0.8,8.5-1.1c1.4-0.2,2.7-0.3,4.1-0.5c1.4-0.2,2.7-0.3,4.1-0.4
	c17-1.8,27.9-2.1,27.9-2.1L784.3,513.2z"/>
<path class="st17" d="M784.2,509.3c0,0-10.9,0.4-27.9,2.1c-1.3,0.1-2.7,0.3-4.1,0.4c-1.3,0.2-2.7,0.3-4.1,0.5
	c-2.7,0.3-5.6,0.7-8.5,1.1c-1.3,0.2-2.7,0.4-4.1,0.6c-1.3,0.2-2.7,0.4-4.1,0.6c-2.8,0.4-5.6,0.9-8.5,1.3c-1.3,0.2-2.7,0.5-4.1,0.7
	c-1.3,0.2-2.7,0.5-4.1,0.7c-19.6,3.5-41.2,8.6-62.2,15.9l-2-3.6c20.5-7.2,43-12.9,64.1-16.5c1.4-0.2,2.7-0.5,4.1-0.7
	c1.4-0.2,2.7-0.5,4.1-0.7c2.9-0.5,5.7-0.9,8.5-1.3c1.4-0.2,2.7-0.4,4.1-0.6c1.4-0.2,2.7-0.4,4.1-0.6c2.9-0.4,5.8-0.7,8.5-1.1
	c1.4-0.2,2.7-0.3,4.1-0.5c1.4-0.2,2.7-0.3,4.1-0.4c16.7-1.7,27.5-2.1,27.7-2.1L784.2,509.3z"/>
<path class="st18" d="M652.6,533.2c-17.6,6.1-34.7,13.8-49.5,23.4c-1.2,0.8-2.4,1.6-3.6,2.4c-1.2,0.8-2.4,1.6-3.5,2.5
	c-10,7.3-18.7,15.6-25.6,25l-3.3-2.4c6.6-9.1,15.2-17.6,25.5-25.3c1.1-0.8,2.3-1.7,3.4-2.5c1.1-0.8,2.3-1.6,3.5-2.4
	c12.9-9,31-17.3,51-24.3L652.6,533.2z"/>
<path class="st14" d="M721.7,520c2.9-0.5,5.7-0.9,8.5-1.3l8.1-1.2c2.9-0.4,5.8-0.8,8.5-1.1l8.1-0.9c16.9-1.8,27.8-2.2,28-2.2
	l-0.1-4.1l-0.1-4.1c-0.2,0-11,0.4-27.7,2.1l-8.1,0.9c-2.7,0.3-5.6,0.7-8.5,1.1l-8.1,1.1c-2.8,0.4-5.6,0.8-8.5,1.3l-8.1,1.4
	c-21.1,3.6-43.6,9.3-64.1,16.5c-20,7-38.1,15.4-51,24.3c-1.2,0.8-2.3,1.6-3.5,2.4c-1.2,0.8-2.3,1.7-3.4,2.5
	c-10.3,7.7-18.9,16.1-25.5,25.3l3.3,2.4l3.3,2.4c6.8-9.4,15.7-17.7,25.8-24.8c1.2-0.8,2.4-1.7,3.6-2.5c1.2-0.8,2.4-1.6,3.6-2.4
	c15.2-9.4,31.4-16.6,47.8-22.4c20-7,40.5-11.7,60.2-15.4L721.7,520z"/>
<path class="st19" d="M705.2,321.3l0.9-0.4l-3.6-9.5l-0.9,0.4c-1.5,0.6-37.8,14.5-74.4,54.9c-21.5,23.7-38.5,51.5-50.8,82.9
	c-2.9,7.5-5.6,15.2-7.9,22.9c-0.4,1.3-0.7,2.2-0.9,3.1c-0.1,0.3-0.2,0.8-0.4,1.5c-9.2,32.1-13.8,67.4-13.8,105v1h10.1v-1
	c0-22.3,1.7-44,5.1-64.4c2.2,7.3,5.5,14.2,9.8,20.6c4.4,6.5,9.8,12.5,16.2,17.8c1.1,0.9,2.3,1.8,3.4,2.7c1.1,0.9,2.2,1.7,3.5,2.6
	c22.7,15.9,55.6,25.7,97.9,29.3l1,0.1l0.7-10.5l-1-0.1c-38.9-3.3-69.3-11.9-90.3-25.7c-1.2-0.8-2.3-1.6-3.6-2.5
	c-1.1-0.8-2.3-1.7-3.4-2.6c-6.4-5-11.7-10.7-15.9-16.9c-14.4-21.1-11.9-43.1-10.2-51.5c0.6-2.3,1.3-4.6,2.1-7.1
	c14.9-35.6,101.4-42.5,102.3-42.6l1-0.1l-0.7-10.1l-1,0.1c-2.5,0.2-60.3,4.6-92.5,27.4c11.6-28.4,27.3-53.5,46.5-74.8
	C669.4,335.1,704.8,321.4,705.2,321.3z"/>
<path class="st20" d="M573.7,433.8l-3.8-1.8c-16,35.7-28.3,81-32.7,138.3l4.1,0.3C545.7,513.4,558.2,468.6,573.7,433.8z"/>
<path class="st21" d="M569.9,432l3.8,1.8c16.5-36.8,36.4-62.5,54.2-80c37.3-36.8,73.1-46,73.4-46.1l-1-3.9l1,3.9l-1-3.9
	C700.3,303.8,618.2,324.1,569.9,432z"/>
<path class="st22" d="M567.1,430.6c-20.7,44.5-32.9,94.2-34,139.4l4.1,0.3c4.4-57.3,16.7-102.6,32.7-138.3L567.1,430.6z"/>
<path class="st23" d="M700.3,303.8l-1-3.9c-56.1,14.5-102.7,67.4-132.2,130.8l2.8,1.3C618.2,324.1,700.3,303.8,700.3,303.8z"/>
<path class="st24" d="M908.2,439.3c-2.6-8.2-6.7-16.9-11.9-25.7l-4.1,2.8c21.3,37.8,37.2,86.6,38.3,148.8l4.1-0.1
	C933.7,519.4,924.9,477.1,908.2,439.3z"/>
<path class="st25" d="M775.1,300.5l-1.5,3.8c0,0,72.1,29.7,118.6,112.1l4.1-2.8C866.5,362.8,800.5,306.4,775.1,300.5z"/>
<path class="st26" d="M888.4,418.9c23,40.5,38.2,89.8,38,146.4l4.1-0.1c-1.1-62.2-17-111-38.3-148.8L888.4,418.9z"/>
<path class="st27" d="M773.6,304.2L772,308c40.7,18.4,85.6,56.6,116.4,110.9l3.8-2.5C845.7,333.9,773.6,304.2,773.6,304.2z"/>
<path class="st28" d="M874.6,428.1l-3.5,2.3c19.6,35.7,35,82.4,34.1,140l4.1,0.5C910.2,512.8,895.2,465.4,874.6,428.1z"/>
<path class="st29" d="M909.3,570.9l4.1,0.6c3.7-48.5-11.5-100.2-36.3-145.1l-2.5,1.7C895.3,465.3,910.3,512.7,909.3,570.9z"/>
<path class="st30" d="M772.3,320.1l-2.2,3.4L772.3,320.1c-2-1.2-3.1-1.8-3.1-1.8S770.3,318.9,772.3,320.1l2.2-3.5
	c-1.1-0.6-2.3-1.2-3.4-1.8l-3.9,7.1c0.4,0.2,36,19.7,70.6,60.3c11,12.9,22.8,29,33.3,48.2l3.5-2.3
	C838.6,362.7,785.5,328,772.3,320.1z"/>
<path class="st31" d="M774.5,316.6l-2.2,3.5c13.2,7.9,66.3,42.6,102.3,108l2.5-1.7C850.3,378.1,812.2,337.4,774.5,316.6z"/>
<path class="st32" d="M775.9,338.7l-2.4,3.3c5.9,4.7,24.7,20.9,37.2,49.3l3.4-1.8C804.2,367.2,789.9,349.5,775.9,338.7z"/>
<path class="st33" d="M773.5,342l-2.4,3.3c13.1,10.3,26.6,27,35.8,48l3.8-2C798.1,363,779.4,346.7,773.5,342z"/>
<path class="st34" d="M822,462c2.3-28.8-3.2-52.4-11.4-70.8l-3.8,2c8.7,19.7,13.6,43.1,11.1,68.4L822,462z"/>
<path class="st35" d="M822,462.2l4.1,0.5c2.7-27.1-2.7-52.1-12-73.2l-3.4,1.8C818.8,409.8,824.3,433.4,822,462.2z"/>
<path class="st36" d="M862.6,534.2c-8.1-8.6-14.4-14.7-15-15.3l-2.8,2.9c0,0,6.5,6.3,15.2,15.5c4.1,4.3,8.7,9.3,13.2,14.5l3.1-2.6
	C871.6,543.8,866.9,538.6,862.6,534.2z"/>
<path class="st37" d="M873.2,551.8c10.1,11.5,20.2,24.1,25.3,33.9l3.6-1.9c-5.3-10.1-15.5-23-25.8-34.6L873.2,551.8z"/>
<path class="st38" d="M898.5,585.6c-5.1-9.8-15.2-22.4-25.3-33.9l-3.1,2.6c10,11.3,19.9,23.7,24.8,33.2L898.5,585.6z"/>
<path class="st39" d="M860,537.3c-8.6-9.1-15.2-15.5-15.2-15.5l-2.8,2.9c0.2,0.2,6.7,6.6,15.3,15.6c4,4.2,8.4,9,12.8,14l3.1-2.6
	C868.6,546.6,864.1,541.6,860,537.3z"/>
<path class="st40" d="M693.9,617.5v-4.1c-16.3-0.2-32-1.7-45.9-3.8l-0.7,4C661.4,615.7,677.3,617.3,693.9,617.5z"/>
<path class="st41" d="M646.6,617.6c14.2,2.1,30.4,3.7,47.1,3.9v-4.1c-16.6-0.2-32.5-1.7-46.5-3.8L646.6,617.6z"/>
<path class="st42" d="M598.8,599.2l-1.1,3.9c6.9,2,25.4,7,49.6,10.6l0.7-4C624,606.1,605.5,601.1,598.8,599.2z"/>
<path class="st43" d="M596.5,606.9c7,2,25.8,7.1,50.1,10.7l0.7-4c-24.2-3.6-42.8-8.6-49.6-10.6L596.5,606.9z"/>
<path class="st44" d="M832.2,611.2l0.7,4c18.8-2.8,37-5.8,46.2-8.1l-0.9-4C869.2,605.4,851,608.4,832.2,611.2z"/>
<path class="st45" d="M877.4,599.2c-8.9,2.2-27,5.2-45.8,8l0.7,4l0,0l0,0l0,0c18.8-2.8,36.9-5.8,46-8.1L877.4,599.2z"/>
<path class="st46" d="M831.6,607.2c-8,1.2-16.1,2.3-23.6,3.4c-19.6,2.7-35.4,4.7-35.8,4.8l0.5,4.2c12.3-1.7,59.6-8.3,59.6-8.3
	L831.6,607.2z"/>
<path class="st47" d="M832.3,611.2c0,0-47.2,6.6-59.6,8.3l0.5,3.9c1.5-0.2,16.5-2.1,35.1-4.7c7.8-1.1,16.3-2.3,24.7-3.5L832.3,611.2
	z"/>
<path class="st48" d="M578.9,626.1l-3.9,1.6c10.5,14,30.6,33.2,54.6,49.1l2.3-3.1C602.5,654.4,583.5,631.8,578.9,626.1z"/>
<path class="st49" d="M582.8,624.4l-3.9,1.6c4.6,5.7,23.6,28.4,53,47.7l2.5-3.3C606.8,652.3,588.4,631.2,582.8,624.4z"/>
<path class="st50" d="M565.8,631.7l-3.8,1.6c6.6,10.1,25.1,35,58.8,55.5l2.6-3.4C597.7,669.8,577.8,650.1,565.8,631.7z"/>
<path class="st51" d="M562.1,633.2l-3.8,1.6c12.5,19.6,33.2,40.5,60.2,57l2.3-3.1C587.3,668.3,568.7,643.3,562.1,633.2z"/>
<path class="st52" d="M544.4,640.5l-3.9,1.6c12.9,20.1,36.9,44.9,67.1,64.1l2.2-2.9C573.1,680.1,551,650.3,544.4,640.5z"/>
<path class="st53" d="M548.1,638.9l-3.7,1.6c6.6,9.7,28.7,39.6,65.4,62.8l2.7-3.6C583.6,681.3,560.5,657.8,548.1,638.9z"/>
<path class="st54" d="M835.1,675l-2.6-3.3c-30,17.6-57.8,24.5-65.5,26.2l0.9,4C776,700.2,804.5,693.2,835.1,675z"/>
<path class="st55" d="M835.1,675c-30.6,18.1-59.1,25.2-67.2,26.9l0.9,4c18.3-3.6,44-13.2,68.7-27.9L835.1,675z"/>
<path class="st56" d="M887.9,623.7c-16.2,21.3-36.2,36.9-55.3,48.1l2.6,3.3c19.4-11.5,39.7-27.4,56.2-49.3L887.9,623.7z"/>
<path class="st57" d="M891.4,625.8c-16.5,21.9-36.8,37.8-56.2,49.3l2.4,3c21.8-12.9,42.9-29.8,57.3-50.2L891.4,625.8z"/>
<path class="st58" d="M845.7,688.2l-2.7-3.4c-25.4,15.2-52.2,24.4-72.6,27.8l0.9,3.9C785.1,714,814.8,706.9,845.7,688.2z"/>
<path class="st59" d="M845.7,688.2c-30.9,18.7-60.6,25.7-74.5,28.2l0.9,4.1c21.7-3.6,49.6-13.4,75.9-29.3L845.7,688.2z"/>
<path class="st60" d="M904.4,633.6c-17.3,24.7-38.3,42.2-58.7,54.6l2.4,3c22.9-13.8,44.5-32.3,59.9-55.5L904.4,633.6z"/>
<path class="st61" d="M901,631.5c-14.7,22.2-35.8,40-58,53.3l2.7,3.4c20.5-12.4,41.5-29.9,58.7-54.6L901,631.5z"/>
<path class="st62" d="M923.1,644.8l-3.5-2.1c-19.9,26.3-43.4,44.5-64.7,57.1l2.6,3.2C879.8,689.9,903.2,671.2,923.1,644.8z"/>
<path class="st63" d="M923.1,644.8c-19.9,26.4-43.3,45.1-65.6,58.2l2.4,3c24.9-14.7,48.9-34.4,66.7-59.1L923.1,644.8z"/>
<path class="st64" d="M857.5,703.1l-2.6-3.2c-10.6,6.2-20.7,11.1-29.5,14.7c-26,10.8-46.7,14.1-51.3,14.8l0.9,4
	C782.5,732.2,818.3,726.2,857.5,703.1z"/>
<path class="st65" d="M857.5,703.1c-39.2,23.1-75,29.2-82.5,30.3l0.9,4c23-3.1,54.1-13.6,84-31.2L857.5,703.1z"/>
<path class="st66" d="M797.3,449.1c-3-6.5-6-12.2-8.4-16.3l-3.2,2.5c1.3,2.3,2.7,5,4.3,8c1,2,2.1,4.2,3.2,6.5l0,0l0,0
	c1,2.1,2,4.3,2.9,6.6l3.5-2.2C798.9,452.5,798.1,450.8,797.3,449.1z"/>
<path class="st67" d="M793.2,449.7L793.2,449.7L793.2,449.7L793.2,449.7c-1.1-2.3-2.1-4.5-3.2-6.5c-1.5-3-3-5.7-4.3-8l-3.2,2.6
	c1.9,3.5,4.3,8,6.6,12.8l0,0c1.2,2.6,2.4,5.3,3.6,8l3.5-2.2C795.2,454,794.2,451.8,793.2,449.7z"/>
<path class="st68" d="M807.4,478.5l-4,0.7c-0.1-0.4-0.1-0.7-0.2-1.1c0-0.2-0.1-0.4-0.1-0.6c-0.2-1-0.4-2-0.6-2.9
	c-0.2-0.8-0.4-1.6-0.6-2.5c-0.3-1.2-0.7-2.4-1-3.5c-0.1-0.4-0.2-0.8-0.4-1.2c-0.2-0.6-0.4-1.2-0.6-1.7c-0.2-0.7-0.5-1.5-0.8-2.2
	c-0.1-0.4-0.3-0.8-0.5-1.2c-0.1-0.4-0.3-0.8-0.5-1.2c-0.6-1.6-1.3-3.2-1.9-4.8l3.5-2.2c2.5,5.8,4.7,12.1,6.3,18.2l0,0
	C806.6,474.3,807,476.4,807.4,478.5z"/>
<path class="st69" d="M803.4,479.4l-4,0.7c-1.2-7-3.8-14.5-6.7-21.5l3.5-2.2c0.7,1.6,1.3,3.2,1.9,4.8c0.1,0.4,0.3,0.8,0.5,1.2
	c0.1,0.2,0.2,0.4,0.2,0.6c0.1,0.2,0.2,0.4,0.3,0.6c0.3,0.7,0.5,1.5,0.8,2.2c0.2,0.6,0.3,1.2,0.5,1.7c0.1,0.4,0.2,0.8,0.4,1.2
	c0.1,0.2,0.1,0.4,0.2,0.5c0.3,0.9,0.5,1.8,0.8,2.8c0,0.1,0,0.2,0.1,0.3c0.2,0.8,0.4,1.6,0.6,2.5c0.1,0.2,0.1,0.5,0.2,0.7
	c0.1,0.3,0.2,0.7,0.2,1C803.1,477.5,803.2,478.5,803.4,479.4z"/>
<rect x="719.1" y="182.4" class="st70" width="4.1" height="12.7"/>
<rect x="715" y="182.4" class="st71" width="4.1" height="12.7"/>
<rect x="719.1" y="171" class="st72" width="4.1" height="11.4"/>
<rect x="715" y="171" class="st73" width="4.1" height="11.4"/>
<rect x="735.7" y="182.4" class="st74" width="4.1" height="12.7"/>
<rect x="731.7" y="182.4" class="st75" width="4.1" height="12.7"/>
<rect x="735.7" y="171" class="st76" width="4.1" height="11.4"/>
<rect x="731.7" y="171" class="st77" width="4.1" height="11.4"/>
<rect x="752.4" y="182.4" class="st78" width="4.1" height="12.7"/>
<rect x="748.3" y="182.4" class="st79" width="4.1" height="12.7"/>
<rect x="752.4" y="171" class="st80" width="4.1" height="11.4"/>
<rect x="748.3" y="171" class="st81" width="4.1" height="11.4"/>
<rect x="714.9" y="267.3" class="st82" width="4.1" height="22.5"/>
<rect x="714.9" y="238.8" class="st83" width="4.1" height="28.5"/>
<rect x="718.9" y="238.8" class="st84" width="4.1" height="28.5"/>
<rect x="718.9" y="267.3" class="st85" width="4.1" height="22.5"/>
<rect x="731.5" y="238.8" class="st86" width="4.1" height="28.5"/>
<rect x="731.5" y="267.3" class="st87" width="4.1" height="22.5"/>
<rect x="735.6" y="238.8" class="st88" width="4.1" height="28.5"/>
<rect x="735.6" y="267.3" class="st89" width="4.1" height="22.5"/>
<rect x="752.2" y="238.8" class="st90" width="4.1" height="28.5"/>
<rect x="752.2" y="267.3" class="st91" width="4.1" height="22.5"/>
<rect x="748.1" y="267.3" class="st92" width="4.1" height="22.5"/>
<rect x="748.1" y="238.8" class="st93" width="4.1" height="28.5"/>
<rect x="719.1" y="364.3" class="st94" width="4.1" height="22.1"/>
<rect x="719.1" y="335.4" class="st95" width="4.1" height="28.9"/>
<rect x="715" y="364.3" class="st96" width="4.1" height="22.1"/>
<rect x="715" y="335.4" class="st97" width="4.1" height="28.9"/>
<rect x="731.7" y="335.4" class="st98" width="4.1" height="28.9"/>
<rect x="731.7" y="364.3" class="st99" width="4.1" height="22.1"/>
<rect x="735.7" y="335.4" class="st100" width="4.1" height="28.9"/>
<rect x="735.7" y="364.3" class="st101" width="4.1" height="22.1"/>
<rect x="752.4" y="335.4" class="st102" width="4.1" height="28.9"/>
<rect x="752.4" y="364.3" class="st103" width="4.1" height="22.1"/>
<rect x="748.3" y="364.3" class="st104" width="4.1" height="22.1"/>
<rect x="748.3" y="335.4" class="st105" width="4.1" height="28.9"/>
<rect x="719.1" y="639" class="st106" width="4.1" height="18"/>
<rect x="715" y="639" class="st107" width="4.1" height="18"/>
<rect x="719.1" y="656.3" class="st108" width="4.1" height="18"/>
<rect x="715" y="656.3" class="st109" width="4.1" height="18"/>
<rect x="731.7" y="639" class="st110" width="4.1" height="18"/>
<rect x="735.7" y="639" class="st111" width="4.1" height="18"/>
<rect x="731.7" y="655.8" class="st112" width="4.1" height="18"/>
<rect x="735.7" y="655.8" class="st113" width="4.1" height="18"/>
<rect x="748.3" y="639" class="st114" width="4.1" height="18"/>
<rect x="752.4" y="639" class="st115" width="4.1" height="18"/>
<rect x="748.3" y="655.8" class="st116" width="4.1" height="18"/>
<rect x="752.4" y="655.8" class="st117" width="4.1" height="18"/>
<rect x="715" y="670.5" class="st118" width="4.1" height="31.9"/>
<rect x="719.1" y="670.5" class="st119" width="4.1" height="31.9"/>
<rect x="735.7" y="670.5" class="st119" width="4.1" height="31.9"/>
<rect x="731.7" y="670.5" class="st118" width="4.1" height="31.9"/>
<rect x="748.3" y="670.5" class="st118" width="4.1" height="31.9"/>
<rect x="752.4" y="670.5" class="st119" width="4.1" height="31.9"/>
<path class="st120" d="M696.2,696.6c-23.6-4.6-44.5-14.8-61.9-26.2l-2.5,3.3c17.8,11.7,39.3,22.2,63.7,26.9L696.2,696.6z"/>
<path class="st121" d="M631.8,673.7l-2.3,3.1c20.1,13.3,42.9,24.2,65.3,27.9l0.7-4C671.1,695.8,649.5,685.4,631.8,673.7z"/>
<path class="st122" d="M620.8,688.7l-2.3,3.1c24.1,14.7,53.2,25.9,85.9,29.4l0.4-4.1C670.1,713,642.3,701.8,620.8,688.7z"/>
<path class="st123" d="M705.2,713.2c-3.9-0.4-7.7-0.9-11.4-1.6l0,0l0,0c-26.4-4.4-50.2-14.1-70.4-26.3l-2.6,3.4
	c21.5,13.1,49.3,24.3,84,28.5L705.2,713.2z"/>
<path class="st124" d="M609.8,703.3l-2.2,2.9c27.7,17.6,60.6,30.5,95.1,30.8l0.5-4.1C665.7,731.5,634.5,718.9,609.8,703.3z"/>
<path class="st125" d="M612.5,699.7l-2.7,3.6c24.6,15.6,55.8,28.2,93.3,29.6l0.4-4C670.8,729,639.1,716.6,612.5,699.7z"/>
<path class="st14" d="M573.6,433.9c16.5-36.8,36.4-62.5,54.2-80c37.3-36.8,73.1-46,73.4-46.1l-1-3.9l-1-3.9
	c-56.1,14.5-102.7,67.4-132.2,130.8c-20.7,44.5-32.9,94.2-34,139.4l4.1,0.3l4.1,0.3C545.6,513.5,558.1,468.7,573.6,433.9z"/>
<path class="st14" d="M908.2,439.3c-2.6-8.2-6.7-16.9-11.9-25.7c-29.9-50.8-95.8-107.2-121.2-113.1l-1.5,3.8L772,308
	c40.7,18.4,85.6,56.6,116.4,110.9c23,40.5,38.2,89.8,38,146.4l4.1-0.1l4.1-0.1C933.7,519.4,924.9,477.1,908.2,439.3z"/>
<path class="st14" d="M877.3,426.2c-26.8-48.4-64.8-89.1-102.6-109.9c-1.1-0.6-2.3-1.2-3.4-1.8l-3.9,7.1c0.4,0.2,36,19.7,70.6,60.3
	c11,12.9,22.8,29,33.3,48.2c19.6,35.7,35,82.4,34.1,140l4.1,0.5l4.1,0.6C917.3,522.8,902.2,471.2,877.3,426.2z"/>
<path class="st14" d="M814,389.4c-9.9-22.2-24.2-39.8-38.2-50.7l-2.4,3.3l-2.4,3.3c13.1,10.3,26.6,27,35.8,48
	c8.7,19.7,13.6,43.1,11.1,68.4l4,0.5l4.1,0.5C828.7,435.4,823.4,410.4,814,389.4z"/>
<path class="st14" d="M898.5,585.6l3.6-1.9c-5.3-10.1-15.5-23-25.8-34.6c-4.7-5.4-9.5-10.5-13.7-15c-8.1-8.6-14.4-14.7-15-15.3
	l-2.8,2.9l-2.8,2.9c0.2,0.2,6.7,6.6,15.3,15.6c4,4.2,8.4,9,12.8,14c10,11.3,19.9,23.7,24.8,33.2L898.5,585.6z"/>
<path class="st14" d="M693.7,621.5v-4.1v-4.1c-16.3-0.2-32-1.7-45.9-3.8c-24-3.5-42.5-8.5-49.2-10.5l-1.1,3.9l-1.1,3.9
	c7,2,25.8,7.1,50.1,10.7C660.8,619.7,677,621.3,693.7,621.5z"/>
<path class="st14" d="M879.2,607.1l-0.9-4l-0.9-4c-8.9,2.2-27,5.2-45.8,8v0.3v-0.3c-8,1.2-16.1,2.3-23.6,3.4
	c-19.6,2.7-35.4,4.7-35.8,4.8l0.5,4.2l0.5,3.9c1.5-0.2,16.5-2.1,35.1-4.7c7.8-1.1,16.3-2.3,24.7-3.5l-0.1-0.6l0.1,0.6
	C851.7,612.4,869.9,609.4,879.2,607.1z"/>
<path class="st14" d="M578.9,626.1l-3.9,1.6c10.5,14,30.6,33.2,54.6,49.1c20.1,13.3,42.9,24.2,65.3,27.9l0.7-4l0.7-4
	c-23.6-4.6-44.5-14.8-61.9-26.2c-27.5-18.1-46-39.3-51.6-46L578.9,626.1z"/>
<path class="st14" d="M548.1,639l-3.7,1.6l-3.9,1.6c12.9,20.1,36.9,44.9,67.1,64.1c27.7,17.6,60.6,30.5,95.1,30.8l0.5-4.1l0.4-4
	c-32.7,0-64.4-12.4-91-29.3C583.6,681.4,560.5,657.9,548.1,639z"/>
<path class="st14" d="M894.9,627.9l-3.5-2.1l-3.5-2.1c-16.2,21.3-36.2,36.9-55.3,48.1c-30,17.6-57.8,24.5-65.5,26.2l0.9,4l0.9,4
	c18.3-3.6,44-13.2,68.7-27.9C859.4,665.1,880.4,648.2,894.9,627.9z"/>
<path class="st14" d="M907.9,635.7l-3.5-2.1l-3.4-2.1c-14.7,22.2-35.8,40-58,53.3c-25.4,15.2-52.2,24.4-72.6,27.8l0.9,3.9l0.9,4.1
	c21.7-3.6,49.6-13.4,75.9-29.3C870.9,677.4,892.6,658.9,907.9,635.7z"/>
<path class="st14" d="M919.6,642.7c-19.9,26.3-43.4,44.5-64.7,57.1c-10.6,6.2-20.7,11.1-29.5,14.7c-26,10.8-46.7,14.1-51.3,14.8
	l0.9,4l0.9,4c23-3.1,54.1-13.6,84-31.2c24.9-14.7,48.9-34.4,66.7-59.1l-3.5-2.1L919.6,642.7z"/>
<path class="st14" d="M799.3,480l4-0.7l4-0.7c-1.7-9.9-5.8-20.6-10-29.7c-4.6-10-9.3-18.2-11.5-21.7l-3.3,2.3l-3.3,2.3
	c2,3.3,5.9,10.2,9.8,18.5C793.3,459.5,797.6,470.2,799.3,480z"/>
<polygon class="st14" points="723.2,195.2 723.2,182.4 723.2,171 719.1,171 715,171 715,182.4 715,195.2 719.1,195.2 "/>
<polygon class="st14" points="739.8,195.2 739.8,182.4 739.8,171 735.7,171 731.7,171 731.7,182.4 731.7,195.2 735.7,195.2 "/>
<polygon class="st14" points="756.4,195.2 756.4,182.4 756.4,171 752.4,171 748.3,171 748.3,182.4 748.3,195.2 752.4,195.2 "/>
<polygon class="st14" points="723,289.8 723,264.3 723,238.8 718.9,238.8 714.9,238.8 714.9,264.3 714.9,289.8 718.9,289.8 "/>
<polygon class="st14" points="739.6,289.8 739.6,264.3 739.6,238.8 735.6,238.8 731.5,238.8 731.5,264.3 731.5,289.8 735.6,289.8 
	"/>
<polygon class="st14" points="756.3,289.8 756.3,264.3 756.3,238.8 752.2,238.8 748.1,238.8 748.1,264.3 748.1,289.8 752.2,289.8 
	"/>
<polygon class="st14" points="723.2,386.4 723.2,364.3 723.2,335.4 719.1,335.4 715,335.4 715,364.3 715,386.4 719.1,386.4 "/>
<polygon class="st14" points="739.8,386.4 739.8,364.3 739.8,335.4 735.7,335.4 731.7,335.4 731.7,364.3 731.7,386.4 735.7,386.4 
	"/>
<polygon class="st14" points="756.4,386.4 756.4,364.3 756.4,335.4 752.4,335.4 748.3,335.4 748.3,364.3 748.3,386.4 752.4,386.4 
	"/>
<polygon class="st14" points="715,639 715,656.9 715,675.1 719.1,675.1 723.2,675.1 723.2,656.9 723.2,639 719.1,639 "/>
<polygon class="st14" points="731.7,639 731.7,656.9 731.7,675.1 735.7,675.1 739.8,675.1 739.8,656.9 739.8,639 735.7,639 "/>
<polygon class="st14" points="748.3,639 748.3,656.9 748.3,675.1 752.4,675.1 756.4,675.1 756.4,656.9 756.4,639 752.4,639 "/>
<path class="st14" d="M623.3,685.2c-25.7-15.6-45.5-35.3-57.5-53.6l-3.8,1.6l-3.8,1.6c12.5,19.6,33.2,40.5,60.2,57
	c24.1,14.7,53.2,25.9,85.9,29.4l0.4-4.1l0.4-4c-3.9-0.4-7.7-0.9-11.4-1.6C667.4,707.1,643.6,697.4,623.3,685.2z"/>
<path class="st126" d="M537.7,650.3c-8.9,0-16.2-7.3-16.2-16.2v-62.7c0-8.9,7.3-16.2,16.2-16.2c2.8,0,5.6,0.8,8.1,2.2l54.3,31.4
	c5.1,2.9,8.1,8.2,8.1,14c0,5.9-3,11.1-8.1,14l-54.3,31.4C543.3,649.5,540.5,650.3,537.7,650.3z"/>
<path class="st126" d="M932.2,649.8c8.7,0,15.8-7.1,15.8-15.8v-61.2c0-8.7-7.1-15.8-15.8-15.8c-2.7,0-5.5,0.7-7.9,2.1l-53,30.6
	c-4.9,2.9-7.9,8-7.9,13.7s2.9,10.8,7.9,13.7l53,30.6C926.7,649.1,929.5,649.8,932.2,649.8z"/>
<path class="st126" d="M848.2,512.7l-13.7-44.2c-1.6-5.2-6.4-8.7-11.9-8.7c-3.5,0-6.7,1.4-9.1,4l-31.4,34c-3.1,3.3-4.1,7.8-2.7,12.1
	c1.3,4.3,4.7,7.4,9.1,8.4l45.1,10.2c0.9,0.2,1.9,0.3,2.8,0.3c3.9,0,7.6-1.9,10-5.1C848.7,520.5,849.4,516.5,848.2,512.7z"/>
<path class="st126" d="M705.1,643c-6.6,0-11.9-5.4-11.9-11.9v-60c0-6.6,5.4-11.9,11.9-11.9h60c6.6,0,11.9,5.4,11.9,11.9v60
	c0,6.6-5.4,11.9-11.9,11.9H705.1z"/>
<path class="st126" d="M694.7,344.4v-56.9c0-6.6,5.4-11.9,11.9-11.9h56.9c6.6,0,11.9,5.4,11.9,11.9v56.9c0,6.6-5.4,11.9-11.9,11.9
	h-56.9C700.1,356.4,694.7,351,694.7,344.4z"/>
<path class="st126" d="M788.9,419.4L743.5,374c-2.3-2.3-5.3-3.5-8.4-3.5c-3.2,0-6.2,1.2-8.4,3.5l-45.4,45.4
	c-2.3,2.3-3.5,5.3-3.5,8.4c0,3.2,1.2,6.2,3.5,8.4l45.4,45.4c2.3,2.3,5.3,3.5,8.4,3.5c3.2,0,6.2-1.2,8.4-3.5l45.4-45.4
	c2.3-2.3,3.5-5.3,3.5-8.4C792.4,424.7,791.1,421.7,788.9,419.4z"/>
<path class="st126" d="M693,742.7v-60.2c0-6.6,5.4-11.9,11.9-11.9h60.2c6.6,0,11.9,5.4,11.9,11.9v60.2c0,6.6-5.4,11.9-11.9,11.9H705
	C698.4,754.7,693,749.3,693,742.7z"/>
<path class="st126" d="M708.8,172.9c-4.7,0-9-2.5-11.4-6.6s-2.4-9,0-13.1l26.3-45.5c2.4-4.1,6.6-6.6,11.4-6.6c4.7,0,9,2.5,11.4,6.6
	l26.3,45.5c2.4,4.1,2.4,9,0,13.1s-6.6,6.6-11.4,6.6H708.8z"/>
<path class="st126" d="M735.1,261.4c-4.7,0-9-2.5-11.4-6.6l-26.3-45.5c-2.4-4.1-2.4-9,0-13.1s6.6-6.6,11.4-6.6h52.6
	c4.7,0,9,2.5,11.4,6.6s2.4,9,0,13.1l-26.3,45.5C744.1,259,739.8,261.4,735.1,261.4z"/>
<circle class="st127" cx="718.4" cy="161.8" r="6.9"/>
<circle class="st127" cx="735.1" cy="161.8" r="6.9"/>
<circle class="st127" cx="751.7" cy="161.8" r="6.9"/>
<circle class="st127" cx="718.4" cy="200.3" r="6.9"/>
<circle class="st127" cx="735.1" cy="200.3" r="6.9"/>
<circle class="st127" cx="751.7" cy="200.3" r="6.9"/>
<circle class="st127" cx="718.4" cy="288.2" r="6.9"/>
<circle class="st127" cx="762.2" cy="301.7" r="6.9"/>
<circle class="st127" cx="762.2" cy="332.7" r="6.9"/>
<circle class="st127" cx="707.3" cy="301.7" r="6.9"/>
<circle class="st127" cx="707.3" cy="318.1" r="6.9"/>
<circle class="st127" cx="735.1" cy="288.2" r="6.9"/>
<circle class="st127" cx="751.7" cy="288.2" r="6.9"/>
<circle class="st127" cx="761.9" cy="317.2" r="6.9"/>
<circle class="st127" cx="718.4" cy="344.5" r="6.9"/>
<circle class="st127" cx="735.1" cy="344.5" r="6.9"/>
<circle class="st127" cx="751.7" cy="344.5" r="6.9"/>
<circle class="st127" cx="718.4" cy="569.9" r="6.9"/>
<circle class="st127" cx="735.1" cy="569.9" r="6.9"/>
<circle class="st127" cx="751.7" cy="569.9" r="6.9"/>
<circle class="st127" cx="718.4" cy="633" r="6.9"/>
<circle class="st127" cx="735.1" cy="633" r="6.9"/>
<circle class="st127" cx="751.7" cy="633" r="6.9"/>
<circle class="st127" cx="718.4" cy="682" r="6.9"/>
<circle class="st127" cx="735.1" cy="682" r="6.9"/>
<circle class="st127" cx="751.7" cy="682" r="6.9"/>
<circle class="st127" cx="718.4" cy="456.7" r="6.9"/>
<circle class="st127" cx="735.1" cy="470.4" r="6.9"/>
<circle class="st127" cx="781.7" cy="427.8" r="6.9"/>
<circle class="st127" cx="751.7" cy="456.7" r="6.9"/>
<circle class="st127" cx="719.5" cy="399.7" r="6.9"/>
<circle class="st127" cx="736.1" cy="382" r="6.9"/>
<circle class="st127" cx="752.8" cy="400.6" r="6.9"/>
<circle class="st127" cx="822.4" cy="472.3" r="6.9"/>
<circle class="st127" cx="806.9" cy="486" r="6.9"/>
<circle class="st127" cx="791" cy="507.3" r="6.9"/>
<circle class="st127" cx="838.4" cy="517.5" r="6.9"/>
<circle class="st127" cx="930.7" cy="570.7" r="6.9"/>
<circle class="st127" cx="914.2" cy="583.4" r="6.9"/>
<circle class="st127" cx="896.3" cy="591.7" r="6.9"/>
<circle class="st127" cx="878.3" cy="602.7" r="6.9"/>
<circle class="st127" cx="762.3" cy="617.8" r="6.9"/>
<circle class="st127" cx="704.3" cy="617.9" r="6.9"/>
<circle class="st127" cx="704.8" cy="586.4" r="6.9"/>
<circle class="st127" cx="592.7" cy="601" r="6.9"/>
<circle class="st127" cx="571.7" cy="591.1" r="6.9"/>
<circle class="st127" cx="555.4" cy="580.4" r="6.9"/>
<circle class="st127" cx="537.4" cy="570.7" r="6.9"/>
<circle class="st127" cx="575.1" cy="616.5" r="6.9"/>
<circle class="st127" cx="556.6" cy="627" r="6.9"/>
<circle class="st127" cx="539.6" cy="635.5" r="6.9"/>
<circle class="st127" cx="704.5" cy="699.8" r="6.9"/>
<circle class="st127" cx="705.1" cy="716.8" r="6.9"/>
<circle class="st127" cx="705.1" cy="732.9" r="6.9"/>
<circle class="st127" cx="762.3" cy="698.7" r="6.9"/>
<circle class="st127" cx="762.3" cy="715.5" r="6.9"/>
<circle class="st127" cx="762.7" cy="734.2" r="6.9"/>
<circle class="st127" cx="896.3" cy="615" r="6.9"/>
<circle class="st127" cx="914.2" cy="624.4" r="6.9"/>
<circle class="st127" cx="932.4" cy="635.8" r="6.9"/>
<circle class="st127" cx="690" cy="427.9" r="6.9"/>
<circle class="st127" cx="718.4" cy="225.4" r="6.9"/>
<circle class="st127" cx="735.1" cy="250.4" r="6.9"/>
<circle class="st127" cx="751.7" cy="225.5" r="6.9"/>
<text transform="matrix(1 0 0 1 714.4809 164.4376)" class="st128 st129">64</text>
<text transform="matrix(1 0 0 1 714.7364 202.4684)" class="st128 st129">47</text>
<text transform="matrix(1 0 0 1 714.481 227.6862)" class="st128 st129">17</text>
<text transform="matrix(1 0 0 1 748.15 227.6862)" class="st128 st129">11</text>
<text transform="matrix(1 0 0 1 731.058 252.6867)" class="st128 st129">43</text>
<text transform="matrix(1 0 0 1 714.9239 290.7369)" class="st128 st129">62</text>
<text transform="matrix(1 0 0 1 731.3746 290.3834)" class="st128 st129">23</text>
<text transform="matrix(1 0 0 1 747.9877 290.7369)" class="st128 st129">56</text>
<text transform="matrix(1 0 0 1 702.9163 303.7935)" class="st128 st129">16</text>
<text transform="matrix(1 0 0 1 703.3145 320.4635)" class="st128 st129">20</text>
<text transform="matrix(1 0 0 1 758.459 304.2794)" class="st128 st129">35</text>
<text transform="matrix(1 0 0 1 757.4742 319.0979)" class="st128 st129">12</text>
<text transform="matrix(1 0 0 1 757.8954 335.0564)" class="st128 st129">45</text>
<text transform="matrix(1 0 0 1 714.7365 346.6973)" class="st128 st129">31</text>
<text transform="matrix(1 0 0 1 733.2266 346.6972)" class="st128 st129">8</text>
<text transform="matrix(1 0 0 1 733.9781 384.049)" class="st128 st129">1</text>
<text transform="matrix(1 0 0 1 717.5399 402.4559)" class="st128 st129">7</text>
<text transform="matrix(1 0 0 1 748.6428 403.0114)" class="st128 st129">13</text>
<text transform="matrix(1 0 0 1 685.6055 430.1941)" class="st128 st129">10</text>
<text transform="matrix(1 0 0 1 714.0935 458.8468)" class="st128 st129">15</text>
<text transform="matrix(1 0 0 1 747.6525 458.847)" class="st128 st129">46</text>
<text transform="matrix(1 0 0 1 733.2266 472.3444)" class="st128 st129">2</text>
<text transform="matrix(1 0 0 1 716.2261 572.1994)" class="st128 st129">5</text>
<text transform="matrix(1 0 0 1 730.7238 572.113)" class="st128 st129">14</text>
<text transform="matrix(1 0 0 1 747.6523 572.1989)" class="st128 st129">29</text>
<text transform="matrix(1 0 0 1 787.3365 509.5094)" class="st128 st129">26</text>
<text transform="matrix(1 0 0 1 803.3043 488.3134)" class="st128 st129">51</text>
<text transform="matrix(1 0 0 1 818.7173 474.5153)" class="st128 st129">21</text>
<text transform="matrix(1 0 0 1 834.3213 519.8015)" class="st128 st129">40</text>
<text transform="matrix(1 0 0 1 876.1235 604.6984)" class="st128 st129">6</text>
<text transform="matrix(1 0 0 1 892.6894 594.5566)" class="st128 st129">37</text>
<text transform="matrix(1 0 0 1 910.0411 585.6473)" class="st128 st129">22</text>
<text transform="matrix(1 0 0 1 926.6468 573.3725)" class="st128 st129">36</text>
<text transform="matrix(1 0 0 1 892.6031 616.9235)" class="st128 st129">49</text>
<g>
	<text transform="matrix(1 0 0 1 910.248 626.7093)" class="st128 st129">55</text>
</g>
<text transform="matrix(1 0 0 1 928.6509 637.9415)" class="st128 st129">30</text>
<text transform="matrix(1 0 0 1 714.4807 684.2106)" class="st128 st129">53</text>
<text transform="matrix(1 0 0 1 731.3745 684.2975)" class="st128 st129">60</text>
<text transform="matrix(1 0 0 1 747.6522 684.2111)" class="st128 st129">52</text>
<text transform="matrix(1 0 0 1 700.3555 702.2946)" class="st128 st129">54</text>
<text transform="matrix(1 0 0 1 701.2466 719.3685)" class="st128 st129">38</text>
<text transform="matrix(1 0 0 1 701.247 735.0774)" class="st128 st129">58</text>
<text transform="matrix(1 0 0 1 758.8155 736.1715)" class="st128 st129">41</text>
<text transform="matrix(1 0 0 1 757.8953 701.1)" class="st128 st129">19</text>
<text transform="matrix(1 0 0 1 758.4595 718.0195)" class="st128 st129">39</text>
<text transform="matrix(1 0 0 1 588.9 603.7861)" class="st128 st129">50</text>
<text transform="matrix(1 0 0 1 571.3951 618.67)" class="st128 st129">32</text>
<text transform="matrix(1 0 0 1 552.9283 629.1954)" class="st128 st129">28</text>
<text transform="matrix(1 0 0 1 535.3702 637.7125)" class="st128 st129">18</text>
<text transform="matrix(1 0 0 1 567.9947 593.2946)" class="st128 st129">44</text>
<text transform="matrix(1 0 0 1 551.7222 582.6085)" class="st128 st129">57</text>
<text transform="matrix(1 0 0 1 533.6544 572.9396)" class="st128 st129">48</text>
<text transform="matrix(1 0 0 1 701.2468 588.5997)" class="st128 st129">34</text>
<text transform="matrix(1 0 0 1 700.3557 620.21)" class="st128 st129">27</text>
<text transform="matrix(1 0 0 1 758.4594 620.1237)" class="st128 st129">59</text>
<text transform="matrix(1 0 0 1 714.0933 635.215)" class="st128 st129">42</text>
<text transform="matrix(1 0 0 1 733.2269 635.2152)" class="st128 st129">3</text>
<text transform="matrix(1 0 0 1 749.8644 635.2153)" class="st128 st129">9</text>
<text transform="matrix(1 0 0 1 777.4918 430.4899)" class="st128 st129">25</text>
<text transform="matrix(1 0 0 1 747.9875 347.1161)" class="st128 st129">33</text>
<text transform="matrix(1 0 0 1 731.3746 202.4684)" class="st128 st129">24</text>
<text transform="matrix(1 0 0 1 749.8648 202.4684)" class="st128 st129">4</text>
<text transform="matrix(1 0 0 1 731.3748 164.1267)" class="st128 st129">61</text>
<text transform="matrix(1 0 0 1 748.2621 164.4375)" class="st128 st129">63</text>
</svg>
