<?xml version="1.0" encoding="utf-8"?>
<!-- Generator: Adobe Illustrator 26.0.1, SVG Export Plug-In . SVG Version: 6.00 Build 0)  -->
<svg version="1.1" id="Layer_1" xmlns="http://www.w3.org/2000/svg" xmlns:xlink="http://www.w3.org/1999/xlink" x="0px" y="0px"
	 viewBox="0 0 1421.8 827" style="enable-background:new 0 0 1421.8 827;" xml:space="preserve">
<style type="text/css">
	.st0{fill:#B05A2F;}
	.st1{fill:#7A3C12;}
	.st2{fill:#A0522D;}
	.st3{fill:#8B4513;}
	.st4{fill:#FF99FF;}
	.st5{fill:#990099;}
	.st6{fill:#B300B3;}
	.st7{fill:#FF80FF;}
	.st8{fill:#FF66FF;}
	.st9{fill:#CC00CC;}
	.st10{fill:#FF4DFF;}
	.st11{fill:#E600E6;}
	.st12{fill:none;stroke:#C49A6C;stroke-width:2;stroke-miterlimit:10;}
	.st13{fill:#00FF00;}
	.st14{fill:#999900;}
	.st15{fill:#FFFF99;}
	.st16{fill:#33FF33;}
	.st17{fill:#FFFFFF;}
	.st18{fill:#C49A6C;}
	.st19{fill:#66FF66;}
	.st20{fill:#00E600;}
	.st21{fill:#00CC00;}
	.st22{fill:#FF0000;}
	.st23{fill:#E60000;}
	.st24{fill:#FF3333;}
	.st25{fill:#FF4D4D;}
	.st26{fill:#FF6666;}
	.st27{fill:#CC0000;}
	.st28{fill:#FF8080;}
	.st29{fill:#B30000;}
	.st30{fill:#CC6600;}
	.st31{fill:#FFAD66;}
	.st32{fill:#FFA34D;}
	.st33{fill:#E67300;}
	.st34{fill:#FF8000;}
	.st35{fill:#990000;}
	.st36{fill:#FF9999;}
	.st37{fill:#FF9933;}
	.st38{fill:#FFFF66;}
	.st39{fill:#CCCC00;}
	.st40{fill:#FFFF80;}
	.st41{fill:#B3B300;}
	.st42{fill:#FFFF00;}
	.st43{fill:#FFFF33;}
	.st44{fill:#E6E600;}
	.st45{fill:#000099;}
	.st46{fill:#9999FF;}
	.st47{fill:#6666FF;}
	.st48{fill:#0000CC;}
	.st49{fill:#0000FF;}
	.st50{fill:#3333FF;}
	.st51{fill:#80FFFF;}
	.st52{fill:#00B3B3;}
	.st53{fill:#66FFFF;}
	.st54{fill:#00CCCC;}
	.st55{fill:#4DFFFF;}
	.st56{fill:#00E6E6;}
	.st57{fill:#00FFFF;}
	.st58{fill:#33FFFF;}
	.st59{fill:#80FF80;}
	.st60{fill:#00B300;}
	.st61{fill:#99FF99;}
	.st62{fill:#009900;}
	.st63{fill:#994D00;}
	.st64{fill:none;}
	.st65{fill:#FFC299;}
	.st66{fill:#B35900;}
	.st67{fill:#FFB880;}
	.st68{fill:#1ABC9C;}
	.st69{fill:#D35400;}
	.st70{fill:#16A085;}
	.st71{fill:#662D91;}
	.st72{fill:#34495E;}
	.st73{fill:#F39C12;}
	.st74{fill:#2980B9;}
	.st75{fill:#E67E22;}
	.st76{fill:#D4F1F4;}
	.st77{fill:#88C5B9;}
	.st78{fill:#2C3E50;}
	.st79{fill:#F1C40F;}
	.st80{fill:#C1E1C1;}
	.st81{fill:#98D8C8;}
	.st82{fill:#E6E6FA;}
	.st83{fill:#FAD0C4;}
	.st84{fill:#AED9E0;}
	.st85{fill:#CCCCCC;}
	.st86{fill:#F3E5AB;}
	.st87{fill:#4D4D4D;}
	.st88{fill:#F8C8DC;}
	.st89{fill:#595959;}
	.st90{fill:#BFBFBF;}
	.st91{fill:#B39EB5;}
	.st92{fill:#47210C;}
	.st93{fill:#666666;}
	.st94{fill:#E07235;}
	.st95{fill:#B3B3B3;}
	.st96{fill:#A6A6A6;}
	.st97{fill:#D06A33;}
	.st98{fill:#737373;}
	.st99{fill:#582A0E;}
	.st100{fill:#808080;}
	.st101{fill:#693310;}
	.st102{fill:#C06231;}
	.st103{fill:#999999;}
	.st104{fill:#FF00FF;}
	.st105{fill:#FF33FF;}
	.st106{fill:#4D004D;}
	.st107{fill:#C299FF;}
	.st108{fill:#B880FF;}
	.st109{fill:#590059;}
	.st110{fill:#AD66FF;}
	.st111{fill:#730073;}
	.st112{fill:#9933FF;}
	.st113{fill:#800080;}
	.st114{fill:#262262;}
	.st115{fill:#8080FF;}
	.st116{fill:#0000B3;}
	.st117{fill:#0000E6;}
	.st118{fill:#4D4DFF;}
	.st119{fill:#009999;}
	.st120{fill:#99FFFF;}
	.st121{fill:#FFFFFF;stroke:#C49A6C;stroke-width:2;stroke-miterlimit:10;}
	.st122{fill:#BCBEC0;}
	.st123{font-family:'ArialMT';}
	.st124{font-size:7.2203px;}
</style>
<path class="st0" d="M719.1,453.3v73.3H715v-71.2c1-0.5,2-1,2.9-1.5C718.4,453.7,718.7,453.4,719.1,453.3z"/>
<path class="st1" d="M723.2,451.3v75.2h-4.1v-73.3c0.4-0.2,0.8-0.4,1.2-0.6C721.2,452.3,722.2,451.8,723.2,451.3z"/>
<path class="st2" d="M735.7,445.9v80.6h-4.1v-78.9C733,447,734.4,446.5,735.7,445.9z"/>
<path class="st3" d="M739.8,444.3v82.2h-4.1v-80.6c1-0.4,2-0.8,3-1.2C739.1,444.6,739.4,444.5,739.8,444.3z"/>
<path class="st4" d="M752.4,440v86.5h-4.1v-85.2C749.7,440.9,751,440.4,752.4,440z"/>
<path class="st5" d="M756.4,438.8v87.8h-4.1V440C753.7,439.5,755.1,439.1,756.4,438.8z"/>
<rect x="719.1" y="526.5" class="st6" width="4.1" height="67"/>
<rect x="715" y="526.5" class="st7" width="4.1" height="67"/>
<rect x="731.7" y="526.5" class="st8" width="4.1" height="67"/>
<rect x="735.7" y="526.5" class="st9" width="4.1" height="67"/>
<rect x="748.3" y="526.5" class="st10" width="4.1" height="67"/>
<rect x="752.4" y="526.5" class="st11" width="4.1" height="67"/>
<g>
	<path class="st12" d="M723.2,513v-61.7c-1,0.4-1.9,0.9-2.9,1.4c-0.4,0.2-0.8,0.4-1.2,0.6c-0.4,0.2-0.7,0.4-1.1,0.6
		c-1,0.5-1.9,1-2.9,1.5v59.1v29.4v67h4.1h4.1v-67V513z"/>
	<path class="st12" d="M739.8,510.6v-66.2c-0.4,0.1-0.7,0.3-1.1,0.4c-1,0.4-2,0.8-3,1.2c-1.3,0.5-2.7,1.1-4.1,1.7v64.1v32.2v67h4.1
		h4.1v-67V510.6z"/>
	<path class="st12" d="M756.4,508.6v-69.8c-1.3,0.4-2.7,0.8-4.1,1.2c-1.3,0.4-2.7,0.9-4.1,1.3v68.2v34.4v67h4.1h4.1v-67V508.6z"/>
</g>
<path class="st13" d="M654.9,536.8c-16.4,5.7-32.6,12.9-47.8,22.4c-1.2,0.8-2.4,1.6-3.6,2.4c-1.2,0.8-2.4,1.7-3.6,2.5
	c-10.1,7.2-18.9,15.4-25.8,24.8l-3.3-2.4c6.8-9.4,15.6-17.7,25.6-25c1.2-0.8,2.3-1.7,3.5-2.5c1.2-0.8,2.4-1.6,3.6-2.4
	c14.8-9.6,31.9-17.3,49.5-23.4L654.9,536.8z"/>
<path class="st14" d="M784.4,513.3c-0.2,0-11.1,0.4-28,2.2c-1.3,0.1-2.7,0.3-4.1,0.4c-1.3,0.1-2.7,0.3-4.1,0.5
	c-2.7,0.3-5.6,0.7-8.5,1.1c-0.4,0-0.7,0.1-1.1,0.2c-1,0.1-2,0.3-3,0.4c-1.3,0.2-2.7,0.4-4.1,0.6c-2.8,0.4-5.6,0.9-8.5,1.3
	c-1,0.2-1.9,0.3-2.9,0.5c-0.4,0.1-0.8,0.1-1.2,0.2c-0.4,0.1-0.7,0.1-1.1,0.2c-1,0.2-1.9,0.4-2.9,0.5c-19.7,3.7-40.2,8.4-60.2,15.4
	l-2-3.6c20.9-7.3,42.6-12.4,62.2-15.9c1.4-0.3,2.7-0.5,4.1-0.7c1.4-0.2,2.7-0.5,4.1-0.7c2.9-0.5,5.7-0.9,8.5-1.3
	c1.4-0.2,2.7-0.4,4.1-0.6c1.4-0.2,2.7-0.4,4.1-0.6c2.9-0.4,5.8-0.8,8.5-1.1c1.4-0.2,2.7-0.3,4.1-0.5c1.4-0.2,2.7-0.3,4.1-0.4
	c17-1.8,27.9-2.1,27.9-2.1L784.4,513.3z"/>
<path class="st15" d="M784.3,509.2c0,0-10.9,0.4-27.9,2.1c-1.3,0.1-2.7,0.3-4.1,0.4c-1.3,0.2-2.7,0.3-4.1,0.5
	c-2.7,0.3-5.6,0.7-8.5,1.1c-1.3,0.2-2.7,0.4-4.1,0.6c-1.3,0.2-2.7,0.4-4.1,0.6c-2.8,0.4-5.6,0.9-8.5,1.3c-1.3,0.2-2.7,0.5-4.1,0.7
	c-1.3,0.2-2.7,0.5-4.1,0.7c-19.6,3.5-41.2,8.6-62.2,15.9l-2-3.6c20.5-7.2,43-12.9,64.1-16.5c1.4-0.2,2.7-0.5,4.1-0.7
	c1.4-0.2,2.7-0.5,4.1-0.7c2.9-0.5,5.7-0.9,8.5-1.3c1.4-0.2,2.7-0.4,4.1-0.6c1.4-0.2,2.7-0.4,4.1-0.6c2.9-0.4,5.8-0.7,8.5-1.1
	c1.4-0.2,2.7-0.3,4.1-0.5c1.4-0.2,2.7-0.3,4.1-0.4c16.7-1.7,27.5-2.1,27.7-2.1L784.3,509.2z"/>
<path class="st16" d="M652.9,533.2c-17.6,6.1-34.7,13.8-49.5,23.4c-1.2,0.8-2.4,1.6-3.6,2.4c-1.2,0.8-2.4,1.6-3.5,2.5
	c-10,7.3-18.7,15.6-25.6,25l-3.3-2.4c6.6-9.1,15.2-17.6,25.5-25.3c1.1-0.8,2.3-1.7,3.4-2.5c1.1-0.8,2.3-1.6,3.5-2.4
	c12.9-9,31-17.3,51-24.3L652.9,533.2z"/>
<path class="st12" d="M721.7,520c2.9-0.5,5.7-0.9,8.5-1.3l8.1-1.2c2.9-0.4,5.8-0.8,8.5-1.1l8.1-0.9c16.9-1.8,27.8-2.2,28-2.2
	l-0.1-4.1l-0.1-4.1c-0.2,0-11,0.4-27.7,2.1l-8.1,0.9c-2.7,0.3-5.6,0.7-8.5,1.1l-8.1,1.1c-2.8,0.4-5.6,0.8-8.5,1.3l-8.1,1.4
	c-21.1,3.6-43.6,9.3-64.1,16.5c-20,7-38.1,15.4-51,24.3c-1.2,0.8-2.3,1.6-3.5,2.4c-1.2,0.8-2.3,1.7-3.4,2.5
	c-10.3,7.7-18.9,16.1-25.5,25.3l3.3,2.4l3.3,2.4c6.8-9.4,15.7-17.7,25.8-24.8c1.2-0.8,2.4-1.7,3.6-2.5c1.2-0.8,2.4-1.6,3.6-2.4
	c15.2-9.4,31.4-16.6,47.8-22.4c20-7,40.5-11.7,60.2-15.4L721.7,520z"/>
<g>
	<g>
		<path class="st17" d="M602.2,550.5c-6.4-5.1-11.8-10.8-16.1-17.2c-14.8-21.8-11.9-44.7-10.3-52.3c0.7-2.4,1.4-4.8,2.1-7.2
			c15.2-36.3,102.2-43.1,103.2-43.2l-0.6-8.1c-3.2,0.2-63.8,5-94.8,29.3c13.8-34.7,31.7-60.3,48-78.4c35.1-38.9,70.8-52.6,71.1-52.8
			l-1.4-3.8l-1.4-3.8c-1.5,0.6-37.6,14.4-74,54.6c-21.4,23.6-38.4,51.4-50.6,82.6c-2.9,7.4-5.5,15-7.9,22.9c-0.3,1-0.6,2-0.9,3
			c-0.1,0.2-0.2,0.7-0.4,1.5c-9.1,32-13.7,67-13.7,104.7h8.1c0-25.3,2.1-48.3,5.8-69.1c1.9,7.8,5.2,16.3,10.9,24.6
			c4.4,6.4,9.7,12.3,16,17.6l0,0c1.1,0.9,2.2,1.8,3.3,2.7s2.3,1.7,3.5,2.6l0,0c22.5,15.8,55.1,25.5,97.4,29.1l0.7-8.1
			c-39.3-3.3-69.6-12-90.8-25.9l0,0c-1.3-0.8-2.5-1.7-3.7-2.5C604.4,552.3,603.3,551.4,602.2,550.5"/>
		<path class="st18" d="M700.4,590.8l-1-0.1c-42.3-3.6-75.2-13.4-97.9-29.3c-1.3-0.9-2.4-1.7-3.5-2.6c-1.1-0.9-2.3-1.8-3.4-2.7
			c-6.4-5.3-11.8-11.3-16.2-17.8c-4.3-6.4-7.6-13.3-9.8-20.6c-3.4,20.4-5.1,42.1-5.1,64.4v1h-10.1v-1c0-37.6,4.6-72.9,13.8-105
			c0.2-0.7,0.3-1.2,0.4-1.5c0.2-0.9,0.5-1.8,0.9-3.1c2.3-7.7,5-15.4,7.9-22.9c12.3-31.4,29.3-59.2,50.8-82.9
			c36.6-40.4,72.9-54.3,74.4-54.9l0.9-0.4l3.6,9.5l-0.9,0.4c-0.4,0.1-35.8,13.8-70.8,52.5c-19.2,21.3-34.9,46.4-46.5,74.8
			c32.2-22.8,90-27.2,92.5-27.4l1-0.1l0.7,10.1l-1,0.1c-0.9,0.1-87.4,7-102.3,42.6c-0.8,2.5-1.5,4.8-2.1,7.1
			c-1.7,8.4-4.2,30.4,10.2,51.5c4.2,6.2,9.5,11.9,15.9,16.9h0c1.1,0.9,2.3,1.8,3.4,2.6c1.3,0.9,2.4,1.7,3.6,2.5
			c21,13.8,51.4,22.4,90.3,25.7l1,0.1L700.4,590.8z M568.2,508.3l1.1,4.6c2.1,8.7,5.7,16.8,10.7,24.3c4.3,6.3,9.6,12.2,15.8,17.4
			c1.1,0.9,2.2,1.8,3.3,2.6c1.1,0.8,2.2,1.6,3.5,2.5c22.1,15.5,54.4,25.2,95.9,28.8l0.5-6.1c-38.8-3.4-69.2-12.1-90.3-25.9
			c-1.2-0.8-2.4-1.6-3.7-2.6c-1.2-0.9-2.4-1.8-3.5-2.7l0,0c-6.5-5.2-12-11-16.3-17.4c-14.8-21.8-12.3-44.4-10.5-53.1
			c0.7-2.4,1.4-4.7,2.2-7.3c6.5-15.5,25.8-27.5,57.6-35.9c21.3-5.6,40.8-7.5,45.4-7.9l-0.4-6.1c-8.4,0.7-64.1,6.2-93.3,29l-2.9,2.3
			l1.4-3.4c11.9-29.9,28.1-56.4,48.2-78.7c32.2-35.6,64.8-50.2,70.6-52.7l-2.2-5.7c-6.1,2.5-39.2,17-72.7,54
			c-21.3,23.5-38.2,51.1-50.4,82.3c-2.9,7.4-5.5,15.1-7.8,22.8c-0.4,1.2-0.7,2.1-0.9,3c-0.1,0.3-0.2,0.8-0.4,1.5
			c-9,31.7-13.6,66.4-13.7,103.4h6.1c0.1-23.7,2-46.7,5.8-68.2L568.2,508.3z"/>
	</g>
</g>
<path class="st16" d="M573.6,433.9l-3.8-1.8c-16,35.7-28.3,81-32.7,138.3l4.1,0.3C545.6,513.5,558.1,468.7,573.6,433.9z"/>
<path class="st19" d="M569.9,432l3.8,1.8c16.5-36.8,36.4-62.5,54.2-80c37.3-36.8,73.1-46,73.4-46.1l-1-3.9l1,3.9l-1-3.9
	C700.3,303.8,618.2,324.1,569.9,432z"/>
<path class="st20" d="M567.1,430.7c-20.7,44.5-32.9,94.2-34,139.4l4.1,0.3c4.4-57.3,16.7-102.6,32.7-138.3L567.1,430.7z"/>
<path class="st21" d="M700.3,303.8l-1-3.9c-56.1,14.5-102.7,67.4-132.2,130.8l2.8,1.3C618.2,324.1,700.3,303.8,700.3,303.8z"/>
<path class="st22" d="M908.2,439.3c-2.6-8.2-6.7-16.9-11.9-25.7l-4.1,2.8c21.3,37.8,37.2,86.6,38.3,148.8l4.1-0.1
	C933.7,519.4,924.9,477.1,908.2,439.3z"/>
<path class="st23" d="M775.1,300.5l-1.5,3.8c0,0,72.1,29.7,118.6,112.1l4.1-2.8C866.5,362.8,800.5,306.4,775.1,300.5z"/>
<path class="st24" d="M888.4,418.8c23,40.5,38.2,89.8,38,146.4l4.1-0.1c-1.1-62.2-17-111-38.3-148.8L888.4,418.8z"/>
<path class="st25" d="M773.6,304.2L772,308c40.7,18.4,85.6,56.6,116.4,110.9l3.8-2.5C845.7,333.9,773.6,304.2,773.6,304.2z"/>
<path class="st26" d="M874.9,427.9l-3.5,2.3c19.6,35.7,35,82.4,34.1,140l4.1,0.5C910.5,512.6,895.5,465.2,874.9,427.9z"/>
<path class="st27" d="M909.5,570.8l4.1,0.6c3.7-48.5-11.5-100.2-36.3-145.1l-2.5,1.7C895.5,465.2,910.5,512.6,909.5,570.8z"/>
<path class="st28" d="M772.5,319.9l-2.2,3.4L772.5,319.9c-2-1.2-3.1-1.8-3.1-1.8S770.5,318.7,772.5,319.9l2.2-3.5
	c-1.1-0.6-2.3-1.2-3.4-1.8l-3.9,7.1c0.4,0.2,36,19.7,70.6,60.3c11,12.9,22.8,29,33.3,48.2l3.5-2.3
	C838.8,362.5,785.7,327.8,772.5,319.9z"/>
<path class="st29" d="M774.8,316.3l-2.2,3.5c13.2,7.9,66.3,42.6,102.3,108l2.5-1.7C850.6,377.8,812.5,337.1,774.8,316.3z"/>
<path class="st30" d="M775.8,338.7l-2.4,3.3c5.9,4.7,24.7,20.9,37.2,49.3l3.4-1.8C804.1,367.2,789.8,349.5,775.8,338.7z"/>
<path class="st31" d="M773.4,341.9l-2.4,3.3c13.1,10.3,26.6,27,35.8,48l3.8-2C798,362.9,779.3,346.6,773.4,341.9z"/>
<path class="st32" d="M822,462.1c2.3-28.8-3.2-52.4-11.4-70.8l-3.8,2c8.7,19.7,13.6,43.1,11.1,68.4L822,462.1z"/>
<path class="st33" d="M822,462.1l4.1,0.5c2.7-27.1-2.7-52.1-12-73.2l-3.4,1.8C818.8,409.7,824.3,433.3,822,462.1z"/>
<path class="st34" d="M862.6,534.2c-8.1-8.6-14.4-14.7-15-15.3l-2.8,2.9c0,0,6.5,6.3,15.2,15.5c4.1,4.3,8.7,9.3,13.2,14.5l3.1-2.6
	C871.6,543.8,866.9,538.6,862.6,534.2z"/>
<path class="st35" d="M873.2,551.8c10.1,11.5,20.2,24.1,25.3,33.9l3.6-1.9c-5.3-10.1-15.5-23-25.8-34.6L873.2,551.8z"/>
<path class="st36" d="M898.5,585.6c-5.1-9.8-15.2-22.4-25.3-33.9l-3.1,2.6c10,11.3,19.9,23.7,24.8,33.2L898.5,585.6z"/>
<path class="st37" d="M860,537.3c-8.6-9.1-15.2-15.5-15.2-15.5l-2.8,2.9c0.2,0.2,6.7,6.6,15.3,15.6c4,4.2,8.4,9,12.8,14l3.1-2.6
	C868.6,546.6,864.1,541.6,860,537.3z"/>
<path class="st38" d="M693.8,617.5l0-4.1c-16.3-0.2-32-1.7-45.9-3.8l-0.7,4C661.3,615.7,677.2,617.3,693.8,617.5z"/>
<path class="st39" d="M646.6,617.6c14.2,2.1,30.4,3.7,47.1,3.9l0-4.1c-16.6-0.2-32.5-1.7-46.5-3.8L646.6,617.6z"/>
<path class="st40" d="M598.8,599.2l-1.1,3.9c6.9,2,25.4,7,49.6,10.6l0.7-4C624,606.1,605.5,601.1,598.8,599.2z"/>
<path class="st41" d="M596.6,607c7,2,25.8,7.1,50.1,10.7l0.7-4c-24.2-3.6-42.8-8.6-49.6-10.6L596.6,607z"/>
<path class="st42" d="M832.2,611.2l0.7,4c18.8-2.8,37-5.8,46.2-8.1l-0.9-4C869.2,605.4,851,608.4,832.2,611.2z"/>
<path class="st43" d="M877.4,599.2c-8.9,2.2-27,5.2-45.8,8l0.7,4h0c0,0,0,0,0,0l0,0c18.8-2.8,36.9-5.8,46-8.1L877.4,599.2z"/>
<path class="st44" d="M831.6,607.2c-8,1.2-16.1,2.3-23.6,3.4c-19.6,2.7-35.4,4.7-35.8,4.8l0.5,4.2c12.3-1.7,59.6-8.3,59.6-8.3
	L831.6,607.2z"/>
<path class="st44" d="M832.3,611.2c0,0-47.2,6.6-59.6,8.3l0.5,3.9c1.5-0.2,16.5-2.1,35.1-4.7c7.8-1.1,16.3-2.3,24.7-3.5L832.3,611.2
	z"/>
<path class="st45" d="M578.9,626.1l-3.9,1.6c10.5,14,30.6,33.2,54.6,49.1l2.3-3.1C602.5,654.4,583.5,631.8,578.9,626.1z"/>
<path class="st46" d="M582.8,624.4l-3.9,1.6c4.6,5.7,23.6,28.4,53,47.7l2.5-3.3C606.8,652.3,588.4,631.2,582.8,624.4z"/>
<path class="st47" d="M565.8,631.5l-3.8,1.6c6.6,10.1,25.1,35,58.8,55.5l2.6-3.4C597.7,669.6,577.8,649.9,565.8,631.5z"/>
<path class="st48" d="M562,633.1l-3.8,1.6c12.5,19.6,33.2,40.5,60.2,57l2.3-3.1C587.2,668.2,568.6,643.2,562,633.1z"/>
<path class="st49" d="M544.3,640.5l-3.9,1.6c12.9,20.1,36.9,44.9,67.1,64.1l2.2-2.9C573,680.1,550.9,650.3,544.3,640.5z"/>
<path class="st50" d="M548.1,639l-3.7,1.6c6.6,9.7,28.7,39.6,65.4,62.8l2.7-3.6C583.6,681.4,560.5,657.9,548.1,639z"/>
<path class="st51" d="M835.1,675l-2.6-3.3c-30,17.6-57.8,24.5-65.5,26.2l0.9,4C776,700.2,804.5,693.2,835.1,675z"/>
<path class="st52" d="M835.1,675c-30.6,18.1-59.1,25.2-67.2,26.9l0.9,4c18.3-3.6,44-13.2,68.7-27.9L835.1,675z"/>
<path class="st53" d="M887.9,623.7c-16.2,21.3-36.2,36.9-55.3,48.1l2.6,3.3c19.4-11.5,39.7-27.4,56.2-49.3L887.9,623.7z"/>
<path class="st54" d="M891.4,625.8c-16.5,21.9-36.8,37.8-56.2,49.3l2.4,3c21.8-12.9,42.9-29.8,57.3-50.2L891.4,625.8z"/>
<path class="st55" d="M845.7,688.2l-2.7-3.4c-25.4,15.2-52.2,24.4-72.6,27.8l0.9,3.9C785.1,714,814.8,706.9,845.7,688.2z"/>
<path class="st56" d="M845.7,688.2c-30.9,18.7-60.6,25.7-74.5,28.2l0.9,4.1c21.7-3.6,49.6-13.4,75.9-29.3L845.7,688.2z"/>
<path class="st57" d="M904.4,633.6c-17.3,24.7-38.3,42.2-58.7,54.6l2.4,3c22.9-13.8,44.5-32.3,59.9-55.5L904.4,633.6z"/>
<path class="st58" d="M901,631.5c-14.7,22.2-35.8,40-58,53.3l2.7,3.4c20.5-12.4,41.5-29.9,58.7-54.6L901,631.5z"/>
<path class="st59" d="M923.1,644.8l-3.5-2.1c-19.9,26.3-43.4,44.5-64.7,57.1l2.6,3.2C879.8,689.9,903.2,671.2,923.1,644.8z"/>
<path class="st60" d="M923.1,644.8c-19.9,26.4-43.3,45.1-65.6,58.2l2.4,3c24.9-14.7,48.9-34.4,66.7-59.1L923.1,644.8z"/>
<path class="st61" d="M857.5,703.1l-2.6-3.2c-10.6,6.2-20.7,11.1-29.5,14.7c-26,10.8-46.7,14.1-51.3,14.8l0.9,4
	C782.5,732.2,818.3,726.2,857.5,703.1z"/>
<path class="st62" d="M857.5,703.1c-39.2,23.1-75,29.2-82.5,30.3l0.9,4c23-3.1,54.1-13.6,84-31.2L857.5,703.1z"/>
<path class="st63" d="M797.3,448.9c-3-6.5-6-12.2-8.4-16.3l-3.2,2.5c1.3,2.3,2.7,5,4.3,8c1,2,2.1,4.2,3.2,6.5h0l0,0
	c1,2.1,2,4.3,2.9,6.6l3.5-2.2C798.9,452.3,798.1,450.6,797.3,448.9z"/>
<path class="st64" d="M785.9,427.3l-3.3,2.3c0,0,0,0,0,0c0.4,0.7,1,1.7,1.6,2.8c0.3,0.5,0.6,1,0.9,1.5c0.2,0.4,0.4,0.8,0.7,1.2
	l3.2-2.5C787.7,430.3,786.6,428.5,785.9,427.3z"/>
<path class="st64" d="M785.1,433.9c-0.3-0.5-0.6-1-0.9-1.5c-0.6-1.1-1.2-2-1.6-2.8l-3.4,2.3c0.8,1.3,1.9,3.3,3.3,5.7l3.2-2.6
	C785.5,434.7,785.3,434.3,785.1,433.9z"/>
<path class="st65" d="M793.2,449.7L793.2,449.7L793.2,449.7L793.2,449.7c-1.1-2.3-2.1-4.5-3.2-6.5c-1.5-3-3-5.7-4.3-8l-3.2,2.6
	c1.9,3.5,4.3,8,6.6,12.8v0c1.2,2.6,2.4,5.3,3.6,8l3.5-2.2C795.2,454,794.2,451.8,793.2,449.7z"/>
<path class="st66" d="M807.3,478.6l-4,0.7c-0.1-0.4-0.1-0.7-0.2-1.1c0-0.2-0.1-0.4-0.1-0.6c-0.2-1-0.4-2-0.6-2.9
	c-0.2-0.8-0.4-1.6-0.6-2.5c-0.3-1.2-0.7-2.4-1-3.5c-0.1-0.4-0.2-0.8-0.4-1.2c-0.2-0.6-0.4-1.2-0.6-1.7c-0.2-0.7-0.5-1.5-0.8-2.2
	c-0.1-0.4-0.3-0.8-0.5-1.2c-0.1-0.4-0.3-0.8-0.5-1.2c-0.6-1.6-1.3-3.2-1.9-4.8l3.5-2.2c2.5,5.8,4.7,12.1,6.3,18.2v0
	C806.5,474.4,806.9,476.5,807.3,478.6z"/>
<path class="st67" d="M803.3,479.3l-4,0.7c-1.2-7-3.8-14.5-6.7-21.5l3.5-2.2c0.7,1.6,1.3,3.2,1.9,4.8c0.1,0.4,0.3,0.8,0.5,1.2
	c0.1,0.2,0.2,0.4,0.2,0.6c0.1,0.2,0.1,0.4,0.2,0.6c0.3,0.7,0.5,1.5,0.8,2.2c0.2,0.6,0.4,1.2,0.6,1.7c0.1,0.4,0.2,0.8,0.4,1.2
	c0.1,0.2,0.1,0.4,0.2,0.5c0.3,0.9,0.5,1.8,0.8,2.8c0,0.1,0,0.2,0.1,0.3c0.2,0.8,0.4,1.6,0.6,2.5c0.1,0.2,0.1,0.5,0.2,0.7
	c0.1,0.3,0.2,0.7,0.2,1C803,477.4,803.1,478.4,803.3,479.3z"/>
<rect x="719.1" y="182.4" class="st68" width="4.1" height="12.7"/>
<rect x="715" y="182.4" class="st69" width="4.1" height="12.7"/>
<rect x="719.1" y="171" class="st70" width="4.1" height="11.4"/>
<rect x="715" y="171" class="st71" width="4.1" height="11.4"/>
<rect x="735.7" y="182.4" class="st72" width="4.1" height="12.7"/>
<rect x="731.7" y="182.4" class="st73" width="4.1" height="12.7"/>
<rect x="735.7" y="171" class="st74" width="4.1" height="11.4"/>
<rect x="731.7" y="171" class="st75" width="4.1" height="11.4"/>
<rect x="752.4" y="182.4" class="st76" width="4.1" height="12.7"/>
<rect x="748.3" y="182.4" class="st77" width="4.1" height="12.7"/>
<rect x="752.4" y="171" class="st78" width="4.1" height="11.4"/>
<rect x="748.3" y="171" class="st79" width="4.1" height="11.4"/>
<rect x="714.9" y="267.3" class="st80" width="4.1" height="22.5"/>
<rect x="714.9" y="238.8" class="st81" width="4.1" height="28.5"/>
<rect x="718.9" y="238.8" class="st82" width="4.1" height="28.5"/>
<rect x="718.9" y="267.3" class="st83" width="4.1" height="22.5"/>
<rect x="731.5" y="238.8" class="st84" width="4.1" height="28.5"/>
<rect x="731.5" y="267.3" class="st85" width="4.1" height="22.5"/>
<rect x="735.6" y="238.8" class="st86" width="4.1" height="28.5"/>
<rect x="735.6" y="267.3" class="st87" width="4.1" height="22.5"/>
<rect x="752.2" y="238.8" class="st88" width="4.1" height="28.5"/>
<rect x="752.2" y="267.3" class="st89" width="4.1" height="22.5"/>
<rect x="748.1" y="267.3" class="st90" width="4.1" height="22.5"/>
<rect x="748.1" y="238.8" class="st91" width="4.1" height="28.5"/>
<rect x="719.1" y="364.3" class="st92" width="4.1" height="22.1"/>
<rect x="719.1" y="335.4" class="st93" width="4.1" height="28.9"/>
<rect x="715" y="364.3" class="st94" width="4.1" height="22.1"/>
<rect x="715" y="335.4" class="st95" width="4.1" height="28.9"/>
<rect x="731.7" y="335.4" class="st96" width="4.1" height="28.9"/>
<rect x="731.7" y="364.3" class="st97" width="4.1" height="22.1"/>
<rect x="735.7" y="335.4" class="st98" width="4.1" height="28.9"/>
<rect x="735.7" y="364.3" class="st99" width="4.1" height="22.1"/>
<rect x="752.4" y="335.4" class="st100" width="4.1" height="28.9"/>
<rect x="752.4" y="364.3" class="st101" width="4.1" height="22.1"/>
<rect x="748.3" y="364.3" class="st102" width="4.1" height="22.1"/>
<rect x="748.3" y="335.4" class="st103" width="4.1" height="28.9"/>
<rect x="719.1" y="639" class="st104" width="4.1" height="18"/>
<rect x="715" y="639" class="st105" width="4.1" height="18"/>
<rect x="719.1" y="656.3" class="st106" width="4.1" height="18"/>
<rect x="715" y="656.3" class="st107" width="4.1" height="18"/>
<rect x="731.7" y="639" class="st108" width="4.1" height="18"/>
<rect x="735.7" y="639" class="st109" width="4.1" height="18"/>
<rect x="731.7" y="655.8" class="st110" width="4.1" height="18"/>
<rect x="735.7" y="655.8" class="st111" width="4.1" height="18"/>
<rect x="748.3" y="639" class="st71" width="4.1" height="18"/>
<rect x="752.4" y="639" class="st111" width="4.1" height="18"/>
<rect x="748.3" y="655.8" class="st112" width="4.1" height="18"/>
<rect x="752.4" y="655.8" class="st113" width="4.1" height="18"/>
<rect x="715" y="670.5" class="st71" width="4.1" height="31.9"/>
<rect x="719.1" y="670.5" class="st114" width="4.1" height="31.9"/>
<rect x="735.7" y="670.5" class="st114" width="4.1" height="31.9"/>
<rect x="731.7" y="670.5" class="st71" width="4.1" height="31.9"/>
<rect x="748.3" y="670.5" class="st71" width="4.1" height="31.9"/>
<rect x="752.4" y="670.5" class="st114" width="4.1" height="31.9"/>
<path class="st115" d="M696.2,696.7c-23.6-4.6-44.5-14.8-61.9-26.2l-2.5,3.3c17.8,11.7,39.3,22.2,63.7,26.9L696.2,696.7z"/>
<path class="st116" d="M631.9,673.8l-2.3,3.1c20.1,13.3,42.9,24.2,65.3,27.9l0.7-4C671.2,695.9,649.6,685.5,631.9,673.8z"/>
<path class="st117" d="M620.8,688.6l-2.3,3.1c24.1,14.7,53.2,25.9,85.9,29.4l0.4-4.1C670.1,712.9,642.3,701.7,620.8,688.6z"/>
<path class="st118" d="M705.2,713c-3.9-0.4-7.7-0.9-11.4-1.6v0v0c-26.4-4.4-50.2-14.1-70.4-26.3l-2.6,3.4
	c21.5,13.1,49.3,24.3,84,28.5L705.2,713z"/>
<path class="st119" d="M609.7,703.3l-2.2,2.9c27.7,17.6,60.6,30.5,95.1,30.8l0.5-4.1C665.6,731.5,634.4,718.9,609.7,703.3z"/>
<path class="st120" d="M612.5,699.7l-2.7,3.6c24.6,15.6,55.8,28.2,93.3,29.6l0.4-4C670.8,729,639.1,716.6,612.5,699.7z"/>
<path class="st12" d="M573.6,433.9c16.5-36.8,36.4-62.5,54.2-80c37.3-36.8,73.1-46,73.4-46.1l-1-3.9l-1-3.9
	c-56.1,14.5-102.7,67.4-132.2,130.8c-20.7,44.5-32.9,94.2-34,139.4l4.1,0.3l4.1,0.3C545.6,513.5,558.1,468.7,573.6,433.9z"/>
<path class="st12" d="M908.2,439.3c-2.6-8.2-6.7-16.9-11.9-25.7c-29.9-50.8-95.8-107.2-121.2-113.1l-1.5,3.8L772,308
	c40.7,18.4,85.6,56.6,116.4,110.9c23,40.5,38.2,89.8,38,146.4l4.1-0.1l4.1-0.1C933.7,519.4,924.9,477.1,908.2,439.3z"/>
<path class="st12" d="M877.3,426.2c-26.8-48.4-64.8-89.1-102.6-109.9c-1.1-0.6-2.3-1.2-3.4-1.8l-3.9,7.1c0.4,0.2,36,19.7,70.6,60.3
	c11,12.9,22.8,29,33.3,48.2c19.6,35.7,35,82.4,34.1,140l4.1,0.5l4.1,0.6C917.3,522.8,902.2,471.2,877.3,426.2z"/>
<path class="st12" d="M814,389.4c-9.9-22.2-24.2-39.8-38.2-50.7l-2.4,3.3l-2.4,3.3c13.1,10.3,26.6,27,35.8,48
	c8.7,19.7,13.6,43.1,11.1,68.4l4,0.5l4.1,0.5C828.7,435.4,823.4,410.4,814,389.4z"/>
<path class="st12" d="M898.5,585.6l3.6-1.9c-5.3-10.1-15.5-23-25.8-34.6c-4.7-5.4-9.5-10.5-13.7-15c-8.1-8.6-14.4-14.7-15-15.3
	l-2.8,2.9l-2.8,2.9c0.2,0.2,6.7,6.6,15.3,15.6c4,4.2,8.4,9,12.8,14c10,11.3,19.9,23.7,24.8,33.2L898.5,585.6z"/>
<path class="st12" d="M693.7,621.5l0-4.1l0-4.1c-16.3-0.2-32-1.7-45.9-3.8c-24-3.5-42.5-8.5-49.2-10.5l-1.1,3.9l-1.1,3.9
	c7,2,25.8,7.1,50.1,10.7C660.8,619.7,677,621.3,693.7,621.5z"/>
<path class="st12" d="M879.2,607.1l-0.9-4l-0.9-4c-8.9,2.2-27,5.2-45.8,8l0,0.3l0-0.3c-8,1.2-16.1,2.3-23.6,3.4
	c-19.6,2.7-35.4,4.7-35.8,4.8l0.5,4.2l0.5,3.9c1.5-0.2,16.5-2.1,35.1-4.7c7.8-1.1,16.3-2.3,24.7-3.5l-0.1-0.6l0.1,0.6
	C851.7,612.4,869.9,609.4,879.2,607.1z"/>
<path class="st12" d="M578.9,626.1l-3.9,1.6c10.5,14,30.6,33.2,54.6,49.1c20.1,13.3,42.9,24.2,65.3,27.9l0.7-4l0.7-4
	c-23.6-4.6-44.5-14.8-61.9-26.2c-27.5-18.1-46-39.3-51.6-46L578.9,626.1z"/>
<path class="st12" d="M548.1,639l-3.7,1.6l-3.9,1.6c12.9,20.1,36.9,44.9,67.1,64.1c27.7,17.6,60.6,30.5,95.1,30.8l0.5-4.1l0.4-4
	c-32.7,0-64.4-12.4-91-29.3C583.6,681.4,560.5,657.9,548.1,639z"/>
<path class="st12" d="M894.9,627.9l-3.5-2.1l-3.5-2.1c-16.2,21.3-36.2,36.9-55.3,48.1c-30,17.6-57.8,24.5-65.5,26.2l0.9,4l0.9,4
	c18.3-3.6,44-13.2,68.7-27.9C859.4,665.1,880.4,648.2,894.9,627.9z"/>
<path class="st12" d="M907.9,635.7l-3.5-2.1l-3.4-2.1c-14.7,22.2-35.8,40-58,53.3c-25.4,15.2-52.2,24.4-72.6,27.8l0.9,3.9l0.9,4.1
	c21.7-3.6,49.6-13.4,75.9-29.3C870.9,677.4,892.6,658.9,907.9,635.7z"/>
<path class="st12" d="M919.6,642.7c-19.9,26.3-43.4,44.5-64.7,57.1c-10.6,6.2-20.7,11.1-29.5,14.7c-26,10.8-46.7,14.1-51.3,14.8
	l0.9,4l0.9,4c23-3.1,54.1-13.6,84-31.2c24.9-14.7,48.9-34.4,66.7-59.1l-3.5-2.1L919.6,642.7z"/>
<path class="st12" d="M799.3,480l4-0.7l4-0.7c-1.7-9.9-5.8-20.6-10-29.7c-4.6-10-9.3-18.2-11.5-21.7l-3.3,2.3l-3.3,2.3
	c2,3.3,5.9,10.2,9.8,18.5C793.3,459.5,797.6,470.2,799.3,480z"/>
<polygon class="st12" points="723.2,195.2 723.2,182.4 723.2,171 719.1,171 715,171 715,182.4 715,195.2 719.1,195.2 "/>
<polygon class="st12" points="739.8,195.2 739.8,182.4 739.8,171 735.7,171 731.7,171 731.7,182.4 731.7,195.2 735.7,195.2 "/>
<polygon class="st12" points="756.4,195.2 756.4,182.4 756.4,171 752.4,171 748.3,171 748.3,182.4 748.3,195.2 752.4,195.2 "/>
<polygon class="st12" points="723,289.8 723,264.3 723,238.8 718.9,238.8 714.9,238.8 714.9,264.3 714.9,289.8 718.9,289.8 "/>
<polygon class="st12" points="739.6,289.8 739.6,264.3 739.6,238.8 735.6,238.8 731.5,238.8 731.5,264.3 731.5,289.8 735.6,289.8 
	"/>
<polygon class="st12" points="756.3,289.8 756.3,264.3 756.3,238.8 752.2,238.8 748.1,238.8 748.1,264.3 748.1,289.8 752.2,289.8 
	"/>
<polygon class="st12" points="723.2,386.4 723.2,364.3 723.2,335.4 719.1,335.4 715,335.4 715,364.3 715,386.4 719.1,386.4 "/>
<polygon class="st12" points="739.8,386.4 739.8,364.3 739.8,335.4 735.7,335.4 731.7,335.4 731.7,364.3 731.7,386.4 735.7,386.4 
	"/>
<polygon class="st12" points="756.4,386.4 756.4,364.3 756.4,335.4 752.4,335.4 748.3,335.4 748.3,364.3 748.3,386.4 752.4,386.4 
	"/>
<polygon class="st12" points="715,639 715,656.9 715,675.1 719.1,675.1 723.2,675.1 723.2,656.9 723.2,639 719.1,639 "/>
<polygon class="st12" points="731.7,639 731.7,656.9 731.7,675.1 735.7,675.1 739.8,675.1 739.8,656.9 739.8,639 735.7,639 "/>
<polygon class="st12" points="748.3,639 748.3,656.9 748.3,675.1 752.4,675.1 756.4,675.1 756.4,656.9 756.4,639 752.4,639 "/>
<path class="st12" d="M623.3,685.2c-25.7-15.6-45.5-35.3-57.5-53.6l-3.8,1.6l-3.8,1.6c12.5,19.6,33.2,40.5,60.2,57
	c24.1,14.7,53.2,25.9,85.9,29.4l0.4-4.1l0.4-4c-3.9-0.4-7.7-0.9-11.4-1.6C667.4,707.1,643.6,697.4,623.3,685.2z"/>
<path class="st121" d="M537.7,650.3c-8.9,0-16.2-7.3-16.2-16.2v-62.7c0-8.9,7.3-16.2,16.2-16.2c2.8,0,5.6,0.8,8.1,2.2l54.3,31.4
	c5.1,2.9,8.1,8.2,8.1,14c0,5.9-3,11.1-8.1,14l-54.3,31.4C543.3,649.5,540.5,650.3,537.7,650.3z"/>
<path class="st121" d="M932.2,649.8c8.7,0,15.8-7.1,15.8-15.8v-61.2c0-8.7-7.1-15.8-15.8-15.8c-2.7,0-5.5,0.7-7.9,2.1l-53,30.6
	c-4.9,2.9-7.9,8-7.9,13.7s2.9,10.8,7.9,13.7l53,30.6C926.7,649.1,929.5,649.8,932.2,649.8z"/>
<path class="st121" d="M848.2,512.7l-13.7-44.2c-1.6-5.2-6.4-8.7-11.9-8.7c-3.5,0-6.7,1.4-9.1,4l-31.4,34c-3.1,3.3-4.1,7.8-2.7,12.1
	c1.3,4.3,4.7,7.4,9.1,8.4l45.1,10.2c0.9,0.2,1.9,0.3,2.8,0.3c3.9,0,7.6-1.9,10-5.1C848.7,520.5,849.4,516.5,848.2,512.7z"/>
<path class="st121" d="M705.1,643c-6.6,0-11.9-5.4-11.9-11.9v-60c0-6.6,5.4-11.9,11.9-11.9h60c6.6,0,11.9,5.4,11.9,11.9v60
	c0,6.6-5.4,11.9-11.9,11.9H705.1z"/>
<path class="st121" d="M694.7,344.4v-56.9c0-6.6,5.4-11.9,11.9-11.9h56.9c6.6,0,11.9,5.4,11.9,11.9v56.9c0,6.6-5.4,11.9-11.9,11.9
	h-56.9C700.1,356.4,694.7,351,694.7,344.4z"/>
<path class="st121" d="M788.9,419.4l-45.4-45.4c-2.3-2.3-5.3-3.5-8.4-3.5c-3.2,0-6.2,1.2-8.4,3.5l-45.4,45.4
	c-2.3,2.3-3.5,5.3-3.5,8.4c0,3.2,1.2,6.2,3.5,8.4l45.4,45.4c2.3,2.3,5.3,3.5,8.4,3.5c3.2,0,6.2-1.2,8.4-3.5l45.4-45.4
	c2.3-2.3,3.5-5.3,3.5-8.4C792.4,424.7,791.1,421.7,788.9,419.4z"/>
<path class="st121" d="M693,742.7v-60.2c0-6.6,5.4-11.9,11.9-11.9h60.2c6.6,0,11.9,5.4,11.9,11.9v60.2c0,6.6-5.4,11.9-11.9,11.9H705
	C698.4,754.7,693,749.3,693,742.7z"/>
<path class="st121" d="M708.8,172.9c-4.7,0-9-2.5-11.4-6.6c-2.4-4.1-2.4-9,0-13.1l26.3-45.5c2.4-4.1,6.6-6.6,11.4-6.6
	c4.7,0,9,2.5,11.4,6.6l26.3,45.5c2.4,4.1,2.4,9,0,13.1c-2.4,4.1-6.6,6.6-11.4,6.6H708.8z"/>
<path class="st121" d="M735.1,261.4c-4.7,0-9-2.5-11.4-6.6l-26.3-45.5c-2.4-4.1-2.4-9,0-13.1c2.4-4.1,6.6-6.6,11.4-6.6h52.6
	c4.7,0,9,2.5,11.4,6.6c2.4,4.1,2.4,9,0,13.1l-26.3,45.5C744.1,259,739.8,261.4,735.1,261.4z"/>
<circle class="st122" cx="718.4" cy="161.8" r="6.9"/>
<circle class="st122" cx="735.1" cy="161.8" r="6.9"/>
<circle class="st122" cx="751.7" cy="161.8" r="6.9"/>
<circle class="st122" cx="718.4" cy="200.3" r="6.9"/>
<circle class="st122" cx="735.1" cy="200.3" r="6.9"/>
<circle class="st122" cx="751.7" cy="200.3" r="6.9"/>
<circle class="st122" cx="718.4" cy="288.2" r="6.9"/>
<circle class="st122" cx="762.2" cy="301.7" r="6.9"/>
<circle class="st122" cx="762.2" cy="332.7" r="6.9"/>
<circle class="st122" cx="707.3" cy="301.7" r="6.9"/>
<circle class="st122" cx="707.3" cy="318.1" r="6.9"/>
<circle class="st122" cx="735.1" cy="288.2" r="6.9"/>
<circle class="st122" cx="751.7" cy="288.2" r="6.9"/>
<circle class="st122" cx="761.9" cy="317.2" r="6.9"/>
<circle class="st122" cx="718.4" cy="344.5" r="6.9"/>
<circle class="st122" cx="735.1" cy="344.5" r="6.9"/>
<circle class="st122" cx="751.7" cy="344.5" r="6.9"/>
<circle class="st122" cx="718.4" cy="569.9" r="6.9"/>
<circle class="st122" cx="735.1" cy="569.9" r="6.9"/>
<circle class="st122" cx="751.7" cy="569.9" r="6.9"/>
<circle class="st122" cx="718.4" cy="633" r="6.9"/>
<circle class="st122" cx="735.1" cy="633" r="6.9"/>
<circle class="st122" cx="751.7" cy="633" r="6.9"/>
<circle class="st122" cx="718.4" cy="682" r="6.9"/>
<circle class="st122" cx="735.1" cy="682" r="6.9"/>
<circle class="st122" cx="751.7" cy="682" r="6.9"/>
<circle class="st122" cx="718.4" cy="456.7" r="6.9"/>
<circle class="st122" cx="735.1" cy="470.4" r="6.9"/>
<circle class="st122" cx="751.7" cy="456.7" r="6.9"/>
<circle class="st122" cx="719.5" cy="399.7" r="6.9"/>
<circle class="st122" cx="736.1" cy="382" r="6.9"/>
<circle class="st122" cx="752.8" cy="400.6" r="6.9"/>
<ellipse transform="matrix(0.9732 -0.2298 0.2298 0.9732 -77.4989 191.0314)" class="st122" cx="781.6" cy="428.3" rx="6.9" ry="6.9"/>
<circle class="st122" cx="822.4" cy="472.3" r="6.9"/>
<circle class="st122" cx="806.9" cy="486" r="6.9"/>
<circle class="st122" cx="791" cy="507.3" r="6.9"/>
<circle class="st122" cx="838.4" cy="517.5" r="6.9"/>
<circle class="st122" cx="930.7" cy="570.7" r="6.9"/>
<circle class="st122" cx="914.2" cy="583.4" r="6.9"/>
<circle class="st122" cx="896.3" cy="591.7" r="6.9"/>
<circle class="st122" cx="878.3" cy="602.7" r="6.9"/>
<circle class="st122" cx="762.3" cy="617.8" r="6.9"/>
<circle class="st122" cx="704.3" cy="617.9" r="6.9"/>
<circle class="st122" cx="704.8" cy="586.4" r="6.9"/>
<circle class="st122" cx="592.7" cy="601" r="6.9"/>
<circle class="st122" cx="571.7" cy="591.1" r="6.9"/>
<circle class="st122" cx="555.4" cy="580.4" r="6.9"/>
<circle class="st122" cx="537.4" cy="570.7" r="6.9"/>
<circle class="st122" cx="575.1" cy="616.5" r="6.9"/>
<circle class="st122" cx="556.6" cy="627" r="6.9"/>
<circle class="st122" cx="539.6" cy="635.5" r="6.9"/>
<circle class="st122" cx="704.5" cy="699.8" r="6.9"/>
<circle class="st122" cx="705.1" cy="716.8" r="6.9"/>
<circle class="st122" cx="705.1" cy="732.9" r="6.9"/>
<circle class="st122" cx="762.3" cy="698.7" r="6.9"/>
<circle class="st122" cx="762.3" cy="715.5" r="6.9"/>
<circle class="st122" cx="762.7" cy="734.2" r="6.9"/>
<circle class="st122" cx="896.3" cy="615" r="6.9"/>
<circle class="st122" cx="914.2" cy="624.4" r="6.9"/>
<circle class="st122" cx="932.4" cy="635.8" r="6.9"/>
<circle class="st122" cx="690" cy="427.9" r="6.9"/>
<circle class="st122" cx="718.4" cy="225.4" r="6.9"/>
<circle class="st122" cx="735.1" cy="250.4" r="6.9"/>
<circle class="st122" cx="751.7" cy="225.5" r="6.9"/>
<rect x="713.8" y="158.8" class="st64" width="8.7" height="5.9"/>
<text transform="matrix(1 0 0 1 714.481 163.9537)" class="st123 st124">64</text>
<rect x="714.1" y="197.3" class="st64" width="8.7" height="5.9"/>
<text transform="matrix(1 0 0 1 714.7364 202.4684)" class="st123 st124">47</text>
<rect x="713.8" y="222.6" class="st64" width="8.7" height="5.9"/>
<text transform="matrix(1 0 0 1 714.481 227.6862)" class="st123 st124">17</text>
<rect x="747.5" y="222.6" class="st64" width="8.7" height="5.9"/>
<text transform="matrix(1 0 0 1 748.15 227.6862)" class="st123 st124">11</text>
<rect x="731.3" y="247.5" class="st64" width="8.7" height="5.9"/>
<text transform="matrix(1 0 0 1 731.058 252.6867)" class="st123 st124">43</text>
<rect x="714.3" y="285.6" class="st64" width="8.7" height="5.9"/>
<text transform="matrix(1 0 0 1 714.9239 290.7369)" class="st123 st124">62</text>
<rect x="730.7" y="285.3" class="st64" width="8.7" height="5.9"/>
<text transform="matrix(1 0 0 1 731.3746 290.3834)" class="st123 st124">23</text>
<rect x="747.4" y="285.6" class="st64" width="8.7" height="5.9"/>
<text transform="matrix(1 0 0 1 748.0132 290.7369)" class="st123 st124">56</text>
<rect x="702.9" y="298.7" class="st64" width="8.7" height="5.9"/>
<text transform="matrix(1 0 0 1 702.9163 303.7935)" class="st123 st124">16</text>
<rect x="702.7" y="315.3" class="st64" width="8.7" height="5.9"/>
<text transform="matrix(1 0 0 1 703.3145 320.4635)" class="st123 st124">20</text>
<rect x="757.8" y="299.2" class="st64" width="8.7" height="5.9"/>
<text transform="matrix(1 0 0 1 758.459 304.2794)" class="st123 st124">35</text>
<rect x="757.8" y="312.7" class="st64" width="8.7" height="5.9"/>
<text transform="matrix(1 0 0 1 757.8092 319.8515)" class="st123 st124">12</text>
<rect x="757.8" y="328.3" class="st64" width="8.7" height="5.9"/>
<text transform="matrix(1 0 0 1 757.8092 335.3913)" class="st123 st124">45</text>
<rect x="715.1" y="341.6" class="st64" width="8.7" height="5.9"/>
<text transform="matrix(1 0 0 1 715.0399 346.6973)" class="st123 st124">31</text>
<rect x="731.1" y="341.6" class="st64" width="8.7" height="5.9"/>
<text transform="matrix(1 0 0 1 733.2266 347.4853)" class="st123 st124">8</text>
<text transform="matrix(1 0 0 1 733.9781 384.049)" class="st123 st124">1</text>
<rect x="715.1" y="396.7" class="st64" width="8.7" height="5.9"/>
<text transform="matrix(1 0 0 1 717.6236 401.8698)" class="st123 st124">7</text>
<rect x="748.4" y="397.9" class="st64" width="8.7" height="5.9"/>
<text transform="matrix(1 0 0 1 749.0484 403.0114)" class="st123 st124">13</text>
<rect x="685.6" y="424.6" class="st64" width="8.7" height="5.9"/>
<text transform="matrix(1 0 0 1 685.6055 430.1941)" class="st123 st124">10</text>
<rect x="713.8" y="453.7" class="st64" width="8.7" height="5.9"/>
<text transform="matrix(1 0 0 1 714.481 458.8468)" class="st123 st124">15</text>
<rect x="747.6" y="453.7" class="st64" width="8.7" height="5.9"/>
<text transform="matrix(1 0 0 1 748.2291 458.7892)" class="st123 st124">46</text>
<rect x="730.7" y="467.2" class="st64" width="8.7" height="5.9"/>
<text transform="matrix(1 0 0 1 733.2266 472.3444)" class="st123 st124">2</text>
<rect x="713.8" y="567" class="st64" width="8.7" height="5.9"/>
<text transform="matrix(1 0 0 1 716.6362 572.5861)" class="st123 st124">5</text>
<rect x="730.7" y="567" class="st64" width="8.7" height="5.9"/>
<text transform="matrix(1 0 0 1 730.7238 572.113)" class="st123 st124">14</text>
<rect x="747.4" y="567" class="st64" width="8.7" height="5.9"/>
<text transform="matrix(1 0 0 1 748.0132 572.1129)" class="st123 st124">29</text>
<rect x="786.7" y="504.4" class="st64" width="8.7" height="5.9"/>
<text transform="matrix(1 0 0 1 787.3365 509.5094)" class="st123 st124">26</text>
<rect x="803" y="483.6" class="st64" width="8.7" height="5.9"/>
<text transform="matrix(1 0 0 1 803.6182 488.7321)" class="st123 st124">51</text>
<rect x="818.1" y="469.4" class="st64" width="8.7" height="5.9"/>
<text transform="matrix(1 0 0 1 818.7173 474.5153)" class="st123 st124">21</text>
<rect x="834" y="514.6" class="st64" width="8.7" height="5.9"/>
<text transform="matrix(1 0 0 1 834.6465 519.7155)" class="st123 st124">40</text>
<rect x="873.2" y="599.8" class="st64" width="8.7" height="5.9"/>
<text transform="matrix(1 0 0 1 876.6234 605.1425)" class="st123 st124">6</text>
<rect x="891.9" y="588.7" class="st64" width="8.7" height="5.9"/>
<text transform="matrix(1 0 0 1 892.6031 593.8688)" class="st123 st124">37</text>
<rect x="909.8" y="580" class="st64" width="8.7" height="5.9"/>
<text transform="matrix(1 0 0 1 909.8325 585.8817)" class="st123 st124">22</text>
<rect x="926.3" y="567.5" class="st64" width="8.7" height="5.9"/>
<text transform="matrix(1 0 0 1 926.6468 573.3725)" class="st123 st124">36</text>
<rect x="891.9" y="611.8" class="st64" width="8.7" height="5.9"/>
<text transform="matrix(1 0 0 1 892.6031 616.9235)" class="st123 st124">49</text>
<g>
	<rect x="909.8" y="621.5" class="st64" width="8.7" height="5.9"/>
	<text transform="matrix(1 0 0 1 910.494 626.623)" class="st123 st124">55</text>
</g>
<rect x="928" y="632.8" class="st64" width="8.7" height="5.9"/>
<text transform="matrix(1 0 0 1 928.6509 637.9415)" class="st123 st124">30</text>
<rect x="714.3" y="679" class="st64" width="8.7" height="5.9"/>
<text transform="matrix(1 0 0 1 714.9239 684.1246)" class="st123 st124">53</text>
<rect x="730.7" y="679" class="st64" width="8.7" height="5.9"/>
<text transform="matrix(1 0 0 1 731.3746 684.1246)" class="st123 st124">60</text>
<rect x="747.3" y="679" class="st64" width="8.7" height="5.9"/>
<text transform="matrix(1 0 0 1 747.9879 684.1246)" class="st123 st124">52</text>
<rect x="700.4" y="697.2" class="st64" width="8.7" height="5.9"/>
<text transform="matrix(1 0 0 1 701.0596 702.2946)" class="st123 st124">54</text>
<rect x="700.9" y="713.8" class="st64" width="8.7" height="5.9"/>
<text transform="matrix(1 0 0 1 701.5923 718.9498)" class="st123 st124">38</text>
<rect x="700.9" y="729.8" class="st64" width="8.7" height="5.9"/>
<text transform="matrix(1 0 0 1 701.5923 734.9039)" class="st123 st124">58</text>
<rect x="758.2" y="731" class="st64" width="8.7" height="5.9"/>
<text transform="matrix(1 0 0 1 758.8155 736.1715)" class="st123 st124">41</text>
<rect x="758" y="695.8" class="st64" width="8.7" height="5.9"/>
<text transform="matrix(1 0 0 1 758.608 700.9117)" class="st123 st124">19</text>
<rect x="758.3" y="712.3" class="st64" width="8.7" height="5.9"/>
<text transform="matrix(1 0 0 1 758.9498 717.4362)" class="st123 st124">39</text>
<rect x="588.3" y="598.1" class="st64" width="8.7" height="5.9"/>
<text transform="matrix(1 0 0 1 588.982 603.212)" class="st123 st124">50</text>
<rect x="570.7" y="613.5" class="st64" width="8.7" height="5.9"/>
<text transform="matrix(1 0 0 1 571.3951 618.67)" class="st123 st124">32</text>
<rect x="552.3" y="624.1" class="st64" width="8.7" height="5.9"/>
<text transform="matrix(1 0 0 1 552.9283 629.1954)" class="st123 st124">28</text>
<rect x="534.7" y="632.6" class="st64" width="8.7" height="5.9"/>
<text transform="matrix(1 0 0 1 535.3702 637.7125)" class="st123 st124">18</text>
<rect x="567.3" y="588.2" class="st64" width="8.7" height="5.9"/>
<text transform="matrix(1 0 0 1 567.9947 593.2946)" class="st123 st124">44</text>
<rect x="551.1" y="577.5" class="st64" width="8.7" height="5.9"/>
<text transform="matrix(1 0 0 1 551.7222 582.6085)" class="st123 st124">57</text>
<rect x="533" y="567.8" class="st64" width="8.7" height="5.9"/>
<text transform="matrix(1 0 0 1 533.6544 572.9396)" class="st123 st124">48</text>
<rect x="699.9" y="585.9" class="st64" width="8.7" height="5.9"/>
<text transform="matrix(1 0 0 1 701.3577 589.3926)" class="st123 st124">34</text>
<rect x="699.9" y="614.8" class="st64" width="8.7" height="5.9"/>
<text transform="matrix(1 0 0 1 700.147 620.7021)" class="st123 st124">27</text>
<rect x="758.1" y="615" class="st64" width="8.7" height="5.9"/>
<text transform="matrix(1 0 0 1 758.7667 620.1237)" class="st123 st124">59</text>
<rect x="714.3" y="629.8" class="st64" width="8.7" height="5.9"/>
<text transform="matrix(1 0 0 1 714.9239 634.8888)" class="st123 st124">42</text>
<rect x="731.1" y="630" class="st64" width="8.7" height="5.9"/>
<text transform="matrix(1 0 0 1 733.2263 635.2145)" class="st123 st124">3</text>
<rect x="747.4" y="630" class="st64" width="8.7" height="5.9"/>
<text transform="matrix(1 0 0 1 749.8646 635.2153)" class="st123 st124">9</text>
<rect x="777.2" y="425.4" class="st64" width="8.7" height="5.9"/>
<text transform="matrix(1 0 0 1 777.8287 430.4899)" class="st123 st124">25</text>
<rect x="747.4" y="341.6" class="st64" width="8.7" height="5.9"/>
<text transform="matrix(1 0 0 1 748.0132 346.6974)" class="st123 st124">33</text>
<rect x="730.7" y="197.3" class="st64" width="8.7" height="5.9"/>
<text transform="matrix(1 0 0 1 731.3746 202.4684)" class="st123 st124">24</text>
<rect x="747.4" y="197.3" class="st64" width="8.7" height="5.9"/>
<text transform="matrix(1 0 0 1 749.8648 202.4684)" class="st123 st124">4</text>
<rect x="731.3" y="158.8" class="st64" width="8.7" height="5.9"/>
<text transform="matrix(1 0 0 1 731.9122 163.9537)" class="st123 st124">61</text>
<rect x="747.3" y="158.8" class="st64" width="8.7" height="5.9"/>
<text transform="matrix(1 0 0 1 747.9879 163.9537)" class="st123 st124">63</text>
</svg>
